%FSLAX23Y23*%
%MOIN*%
G70*
G01*
G75*
G04 Layer_Physical_Order=1*
G04 Layer_Color=255*
%ADD10R,0.083X0.055*%
%ADD11R,0.061X0.035*%
%ADD12R,0.035X0.061*%
%ADD13R,0.067X0.039*%
%ADD14R,0.059X0.059*%
%ADD15C,0.039*%
%ADD16C,0.012*%
%ADD17C,0.020*%
%ADD18R,0.059X0.059*%
%ADD19C,0.059*%
%ADD20C,0.256*%
%ADD21C,0.118*%
%ADD22C,0.075*%
%ADD23R,0.075X0.075*%
%ADD24C,0.062*%
%ADD25R,0.062X0.062*%
%ADD26R,0.138X0.138*%
%ADD27C,0.138*%
%ADD28R,0.063X0.063*%
%ADD29C,0.063*%
%ADD30C,0.098*%
%ADD31R,0.098X0.098*%
%ADD32C,0.055*%
%ADD33C,0.079*%
%ADD34R,0.079X0.079*%
%ADD35C,0.050*%
G36*
X5868Y6306D02*
X5863Y6305D01*
X5863Y6306D01*
X5857Y6312D01*
X5742Y6428D01*
Y6499D01*
X5771D01*
Y6621D01*
X5649D01*
Y6592D01*
X5553D01*
X5547Y6598D01*
Y6696D01*
X5546Y6704D01*
X5543Y6712D01*
X5537Y6718D01*
X5445Y6810D01*
X5439Y6816D01*
X5431Y6819D01*
X5423Y6820D01*
X5184D01*
X5176Y6819D01*
X5168Y6816D01*
X5161Y6810D01*
X5119Y6768D01*
X5067D01*
Y6757D01*
X4760D01*
X4752Y6756D01*
X4744Y6753D01*
X4738Y6747D01*
X4723Y6733D01*
X4682D01*
Y6722D01*
X4645D01*
X4637Y6721D01*
X4629Y6718D01*
X4623Y6712D01*
X4489Y6579D01*
X4485Y6580D01*
X4472Y6578D01*
X4460Y6573D01*
X4450Y6565D01*
X4442Y6555D01*
X4437Y6543D01*
X4435Y6530D01*
X4437Y6517D01*
X4442Y6505D01*
X4450Y6495D01*
X4453Y6492D01*
Y6443D01*
X4450Y6440D01*
X4442Y6430D01*
X4437Y6418D01*
X4435Y6405D01*
X4437Y6392D01*
X4442Y6380D01*
X4450Y6370D01*
X4460Y6362D01*
X4472Y6357D01*
X4485Y6355D01*
X4498Y6357D01*
X4510Y6362D01*
X4520Y6370D01*
X4528Y6380D01*
X4533Y6392D01*
X4535Y6405D01*
X4533Y6418D01*
X4528Y6430D01*
X4520Y6440D01*
X4517Y6443D01*
Y6492D01*
X4520Y6495D01*
X4528Y6505D01*
X4533Y6517D01*
X4535Y6530D01*
X4534Y6534D01*
X4658Y6658D01*
X4682D01*
Y6647D01*
X4768D01*
Y6688D01*
X4773Y6693D01*
X5067D01*
Y6682D01*
X5153D01*
Y6712D01*
X5162Y6721D01*
X5167Y6720D01*
X5168Y6714D01*
X5172Y6703D01*
X5179Y6694D01*
X5188Y6687D01*
X5199Y6683D01*
X5205Y6682D01*
Y6725D01*
X5210D01*
Y6730D01*
X5253D01*
X5252Y6736D01*
X5248Y6747D01*
X5244Y6752D01*
X5246Y6756D01*
X5274D01*
X5276Y6752D01*
X5272Y6747D01*
X5268Y6736D01*
X5266Y6725D01*
X5268Y6714D01*
X5272Y6703D01*
X5279Y6694D01*
X5288Y6687D01*
X5299Y6683D01*
X5307Y6682D01*
Y6491D01*
X5298D01*
Y6409D01*
X5305D01*
X5307Y6406D01*
X5307Y6406D01*
D01*
X5308Y6398D01*
X5311Y6390D01*
X5316Y6384D01*
X5317Y6383D01*
Y6289D01*
X5290D01*
Y6284D01*
X5255D01*
Y6289D01*
X5165D01*
Y6228D01*
X5165Y6228D01*
X5165D01*
X5165Y6226D01*
Y6226D01*
Y6225D01*
X5165Y6223D01*
X5165Y6223D01*
X5165D01*
Y6198D01*
X5255D01*
Y6223D01*
X5255Y6223D01*
D01*
D01*
X5255Y6225D01*
Y6225D01*
Y6226D01*
X5255Y6226D01*
D01*
X5255Y6228D01*
X5255Y6228D01*
X5255D01*
Y6240D01*
X5290D01*
Y6228D01*
X5290Y6228D01*
X5290D01*
X5290Y6226D01*
Y6226D01*
Y6225D01*
X5290Y6223D01*
X5290Y6223D01*
X5290D01*
Y6198D01*
X5380D01*
Y6223D01*
X5380Y6223D01*
D01*
D01*
X5380Y6225D01*
Y6225D01*
Y6226D01*
X5380Y6226D01*
D01*
X5380Y6228D01*
X5380Y6228D01*
X5380D01*
Y6289D01*
X5361D01*
Y6333D01*
X5366Y6334D01*
X5413Y6287D01*
Y5052D01*
X5354D01*
X5354Y5052D01*
X5345Y5056D01*
X5335Y5057D01*
X5325Y5056D01*
X5316Y5052D01*
X5309Y5046D01*
X5303Y5039D01*
X5299Y5030D01*
X5298Y5020D01*
X5299Y5010D01*
X5303Y5001D01*
X5309Y4994D01*
X5316Y4988D01*
X5325Y4984D01*
X5335Y4983D01*
X5345Y4984D01*
X5354Y4988D01*
X5354Y4988D01*
X5432D01*
X5758Y4662D01*
Y4153D01*
X5727Y4122D01*
X5620D01*
X5612Y4121D01*
X5604Y4118D01*
X5598Y4112D01*
X5553Y4067D01*
X5547Y4061D01*
X5544Y4053D01*
X5543Y4045D01*
Y4030D01*
X5541Y4028D01*
X5534Y4020D01*
X5530Y4009D01*
X5528Y3999D01*
X5530Y3988D01*
X5534Y3978D01*
X5541Y3969D01*
X5543Y3967D01*
Y3847D01*
X5541Y3845D01*
X5534Y3837D01*
X5530Y3827D01*
X5528Y3816D01*
X5530Y3805D01*
X5534Y3795D01*
X5541Y3786D01*
X5543Y3784D01*
Y3664D01*
X5541Y3662D01*
X5534Y3654D01*
X5530Y3644D01*
X5528Y3633D01*
X5530Y3622D01*
X5534Y3612D01*
X5541Y3603D01*
X5543Y3601D01*
Y3482D01*
X5541Y3479D01*
X5534Y3471D01*
X5530Y3461D01*
X5528Y3450D01*
X5530Y3439D01*
X5534Y3429D01*
X5541Y3421D01*
X5549Y3414D01*
X5559Y3410D01*
X5570Y3408D01*
X5581Y3410D01*
X5591Y3414D01*
X5599Y3421D01*
X5606Y3429D01*
X5610Y3439D01*
X5612Y3450D01*
X5610Y3461D01*
X5607Y3469D01*
Y3614D01*
X5610Y3622D01*
X5612Y3633D01*
X5610Y3644D01*
X5607Y3652D01*
Y3797D01*
X5610Y3805D01*
X5612Y3816D01*
X5610Y3827D01*
X5607Y3835D01*
Y3979D01*
X5610Y3988D01*
X5612Y3999D01*
X5610Y4009D01*
X5607Y4018D01*
Y4032D01*
X5633Y4058D01*
X5740D01*
X5748Y4059D01*
X5756Y4062D01*
X5762Y4068D01*
X5812Y4118D01*
X5818Y4124D01*
X5821Y4132D01*
X5822Y4140D01*
Y4675D01*
X5821Y4683D01*
X5818Y4691D01*
X5812Y4697D01*
X5477Y5033D01*
Y6300D01*
X5476Y6308D01*
X5473Y6314D01*
X5473Y6316D01*
X5470Y6319D01*
X5467Y6322D01*
X5380Y6410D01*
Y6491D01*
X5371D01*
Y6696D01*
X5370Y6704D01*
X5366Y6712D01*
X5361Y6719D01*
X5353Y6726D01*
X5352Y6736D01*
X5348Y6747D01*
X5344Y6752D01*
X5346Y6756D01*
X5410D01*
X5483Y6683D01*
Y6585D01*
X5483Y6585D01*
X5483D01*
X5484Y6577D01*
X5487Y6569D01*
X5493Y6563D01*
X5518Y6538D01*
X5524Y6532D01*
X5532Y6529D01*
X5540Y6528D01*
X5649D01*
Y6499D01*
X5678D01*
Y6415D01*
X5679Y6407D01*
X5682Y6399D01*
X5688Y6393D01*
X5803Y6277D01*
Y6208D01*
X5761Y6166D01*
X5758Y6170D01*
X5761Y6174D01*
X5767Y6184D01*
X5770Y6196D01*
X5771Y6203D01*
X5715D01*
Y6147D01*
X5722Y6148D01*
X5733Y6151D01*
X5744Y6157D01*
X5748Y6160D01*
X5752Y6157D01*
X5726Y6131D01*
X5649D01*
Y6009D01*
X5678D01*
Y5908D01*
X5581Y5811D01*
X5580Y5811D01*
X5571Y5807D01*
X5564Y5801D01*
X5558Y5794D01*
X5554Y5785D01*
X5553Y5775D01*
X5554Y5765D01*
X5558Y5756D01*
X5564Y5749D01*
X5571Y5743D01*
X5580Y5739D01*
X5590Y5738D01*
X5600Y5739D01*
X5609Y5743D01*
X5616Y5749D01*
X5622Y5756D01*
X5626Y5765D01*
X5626Y5766D01*
X5732Y5873D01*
X5738Y5879D01*
X5741Y5887D01*
X5742Y5895D01*
Y6009D01*
X5771D01*
Y6086D01*
X5857Y6173D01*
X5863Y6179D01*
X5863Y6180D01*
X5868Y6179D01*
Y3069D01*
X2069D01*
Y6504D01*
X2074Y6506D01*
X2225Y6355D01*
X2225Y6353D01*
X2216Y6342D01*
X2209Y6330D01*
X2205Y6316D01*
X2204Y6302D01*
X2205Y6289D01*
X2209Y6275D01*
X2216Y6263D01*
X2225Y6252D01*
X2235Y6243D01*
X2243Y6239D01*
Y6169D01*
X2235Y6165D01*
X2225Y6156D01*
X2216Y6145D01*
X2209Y6133D01*
X2205Y6119D01*
X2204Y6106D01*
X2205Y6092D01*
X2209Y6078D01*
X2216Y6066D01*
X2225Y6055D01*
X2235Y6046D01*
X2248Y6040D01*
X2261Y6036D01*
X2275Y6034D01*
X2289Y6036D01*
X2302Y6040D01*
X2315Y6046D01*
X2325Y6055D01*
X2334Y6066D01*
X2341Y6078D01*
X2345Y6092D01*
X2346Y6106D01*
X2345Y6119D01*
X2341Y6133D01*
X2334Y6145D01*
X2325Y6156D01*
X2315Y6165D01*
X2307Y6169D01*
Y6239D01*
X2315Y6243D01*
X2325Y6252D01*
X2334Y6263D01*
X2341Y6275D01*
X2345Y6289D01*
X2346Y6302D01*
X2345Y6316D01*
X2341Y6330D01*
X2334Y6342D01*
X2325Y6353D01*
X2315Y6362D01*
X2302Y6368D01*
X2300Y6369D01*
X2297Y6372D01*
X2120Y6550D01*
Y6625D01*
X2138Y6643D01*
X2232D01*
Y6642D01*
X2273D01*
X2283Y6633D01*
X2283Y6632D01*
X2281Y6627D01*
X2280Y6628D01*
Y6590D01*
X2318D01*
X2317Y6596D01*
X2312Y6607D01*
X2306Y6616D01*
X2301Y6619D01*
X2303Y6623D01*
X2305Y6623D01*
X2511D01*
Y6606D01*
X2609D01*
Y6704D01*
X2511D01*
Y6687D01*
X2318D01*
X2318Y6687D01*
Y6728D01*
X2232D01*
Y6707D01*
X2125D01*
X2117Y6706D01*
X2109Y6703D01*
X2103Y6697D01*
X2074Y6669D01*
X2069Y6671D01*
Y6868D01*
X5868D01*
Y6306D01*
D02*
G37*
%LPC*%
G36*
X3831Y4395D02*
X3795D01*
Y4359D01*
X3831D01*
Y4395D01*
D02*
G37*
G36*
X5610Y4627D02*
X5600Y4626D01*
X5591Y4622D01*
X5584Y4616D01*
X5578Y4609D01*
X5574Y4600D01*
X5573Y4590D01*
X5574Y4580D01*
X5578Y4571D01*
X5578Y4571D01*
Y4388D01*
X5558Y4367D01*
X5557Y4367D01*
X5528D01*
Y4387D01*
X5471D01*
X5471Y4387D01*
Y4387D01*
X5469Y4387D01*
X5468D01*
X5467D01*
X5466Y4387D01*
X5466Y4387D01*
Y4387D01*
X5408D01*
Y4303D01*
X5420D01*
Y4257D01*
X5421Y4250D01*
X5425Y4244D01*
X5442Y4227D01*
X5440Y4223D01*
X5429D01*
Y4140D01*
X5511D01*
Y4223D01*
X5488D01*
Y4225D01*
X5487Y4232D01*
X5483Y4238D01*
X5456Y4265D01*
Y4303D01*
X5466D01*
X5466Y4303D01*
Y4303D01*
X5467Y4303D01*
X5468D01*
X5469D01*
X5471Y4303D01*
X5471Y4303D01*
Y4303D01*
X5528D01*
Y4323D01*
X5548D01*
Y4217D01*
X5541Y4211D01*
X5534Y4202D01*
X5530Y4192D01*
X5528Y4182D01*
X5530Y4171D01*
X5534Y4161D01*
X5541Y4152D01*
X5549Y4145D01*
X5559Y4141D01*
X5570Y4140D01*
X5581Y4141D01*
X5591Y4145D01*
X5599Y4152D01*
X5606Y4161D01*
X5610Y4171D01*
X5612Y4182D01*
X5611Y4186D01*
X5612Y4192D01*
Y4332D01*
X5632Y4353D01*
X5638Y4359D01*
X5641Y4367D01*
X5642Y4375D01*
Y4571D01*
X5642Y4571D01*
X5646Y4580D01*
X5647Y4590D01*
X5646Y4600D01*
X5642Y4609D01*
X5636Y4616D01*
X5629Y4622D01*
X5620Y4626D01*
X5610Y4627D01*
D02*
G37*
G36*
X3785Y4395D02*
X3749D01*
Y4359D01*
X3785D01*
Y4395D01*
D02*
G37*
G36*
X5665Y4223D02*
X5659Y4222D01*
X5649Y4218D01*
X5641Y4211D01*
X5634Y4202D01*
X5630Y4192D01*
X5629Y4187D01*
X5665D01*
Y4223D01*
D02*
G37*
G36*
X5675D02*
Y4187D01*
X5711D01*
X5710Y4192D01*
X5706Y4202D01*
X5699Y4211D01*
X5691Y4218D01*
X5681Y4222D01*
X5675Y4223D01*
D02*
G37*
G36*
X3831Y4441D02*
X3795D01*
Y4405D01*
X3831D01*
Y4441D01*
D02*
G37*
G36*
X3490Y4486D02*
X3484Y4485D01*
X3474Y4481D01*
X3466Y4474D01*
X3459Y4466D01*
X3455Y4456D01*
X3454Y4450D01*
X3490D01*
Y4486D01*
D02*
G37*
G36*
X3785Y4441D02*
X3749D01*
Y4405D01*
X3785D01*
Y4441D01*
D02*
G37*
G36*
X3500Y4486D02*
Y4450D01*
X3536D01*
X3535Y4456D01*
X3531Y4466D01*
X3524Y4474D01*
X3516Y4481D01*
X3506Y4485D01*
X3500Y4486D01*
D02*
G37*
G36*
X3536Y4440D02*
X3454D01*
X3455Y4434D01*
X3459Y4424D01*
X3466Y4416D01*
X3468Y4414D01*
X3468Y4409D01*
X3463Y4405D01*
X3451Y4393D01*
X2695D01*
Y4417D01*
X2637D01*
X2637Y4417D01*
Y4417D01*
X2635Y4417D01*
X2634D01*
X2634D01*
X2632Y4417D01*
X2632Y4417D01*
Y4417D01*
X2574D01*
Y4393D01*
X2552D01*
X2552Y4394D01*
X2546Y4401D01*
X2539Y4407D01*
X2530Y4411D01*
X2520Y4412D01*
X2510Y4411D01*
X2501Y4407D01*
X2494Y4401D01*
X2488Y4394D01*
X2484Y4385D01*
X2483Y4375D01*
X2484Y4365D01*
X2488Y4356D01*
X2494Y4349D01*
X2501Y4343D01*
X2510Y4339D01*
X2520Y4338D01*
X2530Y4339D01*
X2539Y4343D01*
X2546Y4349D01*
X2552Y4356D01*
X2552Y4357D01*
X2574D01*
Y4333D01*
X2632D01*
X2632Y4333D01*
Y4333D01*
X2634Y4333D01*
X2634D01*
X2635D01*
X2637Y4333D01*
X2637Y4333D01*
Y4333D01*
X2695D01*
Y4357D01*
X3451D01*
X3454Y4353D01*
X3453Y4345D01*
X3455Y4334D01*
X3459Y4324D01*
X3466Y4316D01*
X3474Y4309D01*
X3484Y4305D01*
X3495Y4303D01*
X3506Y4305D01*
X3516Y4309D01*
X3524Y4316D01*
X3531Y4324D01*
X3535Y4334D01*
X3537Y4345D01*
X3535Y4356D01*
X3531Y4366D01*
X3528Y4370D01*
X3530Y4374D01*
X3635D01*
X3795Y4215D01*
X3793Y4210D01*
X3525D01*
X3524Y4215D01*
X3524Y4216D01*
X3531Y4224D01*
X3535Y4234D01*
X3537Y4245D01*
X3535Y4256D01*
X3531Y4266D01*
X3524Y4274D01*
X3516Y4281D01*
X3506Y4285D01*
X3495Y4287D01*
X3484Y4285D01*
X3474Y4281D01*
X3466Y4274D01*
X3459Y4266D01*
X3455Y4256D01*
X3453Y4245D01*
X3455Y4234D01*
X3459Y4224D01*
X3466Y4216D01*
X3466Y4215D01*
X3465Y4210D01*
X3280D01*
X3183Y4308D01*
X3177Y4312D01*
X3170Y4313D01*
X2925D01*
X2918Y4312D01*
X2912Y4308D01*
X2808Y4203D01*
X2695D01*
Y4227D01*
X2637D01*
X2637Y4227D01*
Y4227D01*
X2635Y4227D01*
X2634D01*
X2634D01*
X2632Y4227D01*
X2632Y4227D01*
Y4227D01*
X2574D01*
Y4208D01*
X2542D01*
X2542Y4209D01*
X2536Y4216D01*
X2529Y4222D01*
X2520Y4226D01*
X2510Y4227D01*
X2500Y4226D01*
X2491Y4222D01*
X2484Y4216D01*
X2478Y4209D01*
X2474Y4200D01*
X2473Y4190D01*
X2474Y4180D01*
X2478Y4171D01*
X2484Y4164D01*
X2491Y4158D01*
X2500Y4154D01*
X2510Y4153D01*
X2520Y4154D01*
X2529Y4158D01*
X2536Y4164D01*
X2542Y4171D01*
X2542Y4172D01*
X2574D01*
Y4143D01*
X2632D01*
X2632Y4143D01*
Y4143D01*
X2634Y4143D01*
X2634D01*
X2635D01*
X2637Y4143D01*
X2637Y4143D01*
Y4143D01*
X2695D01*
Y4167D01*
X2815D01*
X2822Y4168D01*
X2828Y4172D01*
X2932Y4277D01*
X3163D01*
X3260Y4179D01*
X3266Y4176D01*
X3273Y4174D01*
X3460D01*
X3462Y4170D01*
X3459Y4166D01*
X3455Y4156D01*
X3453Y4145D01*
X3455Y4134D01*
X3459Y4124D01*
X3466Y4116D01*
X3474Y4109D01*
X3484Y4105D01*
X3495Y4103D01*
X3506Y4105D01*
X3516Y4109D01*
X3524Y4116D01*
X3531Y4124D01*
X3532Y4127D01*
X3618D01*
X3618Y4126D01*
X3624Y4119D01*
X3631Y4113D01*
X3640Y4109D01*
X3650Y4108D01*
X3660Y4109D01*
X3669Y4113D01*
X3676Y4119D01*
X3682Y4126D01*
X3686Y4135D01*
X3687Y4145D01*
X3686Y4155D01*
X3682Y4164D01*
X3677Y4170D01*
X3680Y4174D01*
X3795D01*
X3813Y4157D01*
X3811Y4152D01*
X3810Y4152D01*
X3800Y4151D01*
X3791Y4147D01*
X3784Y4141D01*
X3778Y4134D01*
X3774Y4125D01*
X3773Y4115D01*
X3773Y4113D01*
X3770Y4109D01*
X3736D01*
X3729Y4108D01*
X3724Y4104D01*
X3633Y4013D01*
X3528D01*
X3526Y4018D01*
X3531Y4024D01*
X3535Y4034D01*
X3537Y4045D01*
X3535Y4056D01*
X3531Y4066D01*
X3524Y4074D01*
X3516Y4081D01*
X3506Y4085D01*
X3495Y4087D01*
X3484Y4085D01*
X3474Y4081D01*
X3466Y4074D01*
X3459Y4066D01*
X3455Y4056D01*
X3453Y4045D01*
X3455Y4034D01*
X3459Y4024D01*
X3464Y4018D01*
X3462Y4013D01*
X3325D01*
X3318Y4012D01*
X3312Y4008D01*
X3163Y3858D01*
X2942D01*
X2793Y4008D01*
X2787Y4012D01*
X2780Y4013D01*
X2695D01*
Y4037D01*
X2637D01*
X2637Y4037D01*
Y4037D01*
X2635Y4037D01*
X2634D01*
X2634D01*
X2632Y4037D01*
X2632Y4037D01*
Y4037D01*
X2574D01*
Y4018D01*
X2445D01*
Y4041D01*
X2363D01*
Y3959D01*
X2445D01*
Y3982D01*
X2574D01*
Y3953D01*
X2632D01*
X2632Y3953D01*
Y3953D01*
X2634Y3953D01*
X2634D01*
X2635D01*
X2637Y3953D01*
X2637Y3953D01*
Y3953D01*
X2695D01*
Y3977D01*
X2773D01*
X2922Y3827D01*
X2928Y3823D01*
X2935Y3822D01*
X3170D01*
X3177Y3823D01*
X3183Y3827D01*
X3332Y3977D01*
X3462D01*
X3464Y3972D01*
X3459Y3966D01*
X3455Y3956D01*
X3453Y3945D01*
X3455Y3934D01*
X3459Y3924D01*
X3466Y3916D01*
X3474Y3909D01*
X3484Y3905D01*
X3495Y3903D01*
X3506Y3905D01*
X3516Y3909D01*
X3524Y3916D01*
X3531Y3924D01*
X3532Y3927D01*
X4103D01*
X4103Y3926D01*
X4109Y3919D01*
X4116Y3913D01*
X4125Y3909D01*
X4135Y3908D01*
X4145Y3909D01*
X4149Y3911D01*
X4152Y3907D01*
X4149Y3900D01*
X4148Y3890D01*
X4148Y3889D01*
X4123Y3863D01*
X3536D01*
Y3886D01*
X3454D01*
Y3804D01*
X3536D01*
Y3827D01*
X4130D01*
X4137Y3828D01*
X4143Y3832D01*
X4168Y3857D01*
X4175Y3854D01*
X4185Y3853D01*
X4195Y3854D01*
X4204Y3858D01*
X4211Y3864D01*
X4217Y3871D01*
X4221Y3880D01*
X4222Y3890D01*
X4221Y3900D01*
X4217Y3909D01*
X4211Y3916D01*
X4204Y3922D01*
X4195Y3926D01*
X4185Y3927D01*
X4175Y3926D01*
X4171Y3924D01*
X4168Y3928D01*
X4171Y3935D01*
X4172Y3945D01*
X4171Y3955D01*
X4167Y3964D01*
X4161Y3971D01*
X4154Y3977D01*
X4145Y3981D01*
X4135Y3982D01*
X4125Y3981D01*
X4116Y3977D01*
X4110Y3972D01*
X4108Y3972D01*
X4102Y3968D01*
X4098Y3963D01*
X3532D01*
X3531Y3966D01*
X3526Y3972D01*
X3528Y3977D01*
X3640D01*
X3647Y3978D01*
X3653Y3982D01*
X3744Y4073D01*
X3810D01*
X3817Y4075D01*
X3823Y4079D01*
X3823Y4079D01*
X3824Y4081D01*
X3829Y4083D01*
X3836Y4089D01*
X3842Y4096D01*
X3846Y4105D01*
X3847Y4115D01*
X3847Y4116D01*
X3852Y4118D01*
X3867Y4102D01*
X3867Y4102D01*
X3867D01*
X3867Y4102D01*
X3867D01*
X3867Y4102D01*
Y4102D01*
Y4102D01*
D01*
D01*
X3867D01*
Y4102D01*
X3873Y4098D01*
X3880Y4097D01*
X3883D01*
X3883Y4096D01*
X3889Y4089D01*
X3896Y4083D01*
X3905Y4079D01*
X3915Y4078D01*
X3925Y4079D01*
X3934Y4083D01*
X3941Y4089D01*
X3947Y4096D01*
X3951Y4105D01*
X3952Y4115D01*
X3951Y4125D01*
X3947Y4134D01*
X3941Y4141D01*
X3940Y4142D01*
X3942Y4147D01*
X4028D01*
X4058Y4116D01*
X4058Y4115D01*
X4059Y4105D01*
X4063Y4096D01*
X4069Y4089D01*
X4076Y4083D01*
X4085Y4079D01*
X4095Y4078D01*
X4105Y4079D01*
X4114Y4083D01*
X4121Y4089D01*
X4127Y4096D01*
X4131Y4105D01*
X4132Y4115D01*
X4131Y4125D01*
X4127Y4134D01*
X4121Y4141D01*
X4114Y4147D01*
X4105Y4151D01*
X4095Y4152D01*
X4085Y4151D01*
X4078Y4148D01*
X4048Y4178D01*
X4042Y4182D01*
X4035Y4183D01*
X3877D01*
X3656Y4405D01*
X3650Y4409D01*
X3643Y4410D01*
X3525D01*
X3524Y4415D01*
X3524Y4416D01*
X3531Y4424D01*
X3535Y4434D01*
X3536Y4440D01*
D02*
G37*
G36*
X2261Y3995D02*
X2225D01*
Y3959D01*
X2261D01*
Y3995D01*
D02*
G37*
G36*
X2307D02*
X2271D01*
Y3959D01*
X2307D01*
Y3995D01*
D02*
G37*
G36*
X5711Y3994D02*
X5675D01*
Y3958D01*
X5681Y3958D01*
X5691Y3963D01*
X5699Y3969D01*
X5706Y3978D01*
X5710Y3988D01*
X5711Y3994D01*
D02*
G37*
G36*
X5511Y4040D02*
X5429D01*
Y3957D01*
X5511D01*
Y4040D01*
D02*
G37*
G36*
X5665Y3994D02*
X5629D01*
X5630Y3988D01*
X5634Y3978D01*
X5641Y3969D01*
X5649Y3963D01*
X5659Y3958D01*
X5665Y3958D01*
Y3994D01*
D02*
G37*
G36*
Y4040D02*
X5659Y4039D01*
X5649Y4035D01*
X5641Y4028D01*
X5634Y4020D01*
X5630Y4009D01*
X5629Y4004D01*
X5665D01*
Y4040D01*
D02*
G37*
G36*
Y4177D02*
X5629D01*
X5630Y4171D01*
X5634Y4161D01*
X5641Y4152D01*
X5649Y4145D01*
X5659Y4141D01*
X5665Y4141D01*
Y4177D01*
D02*
G37*
G36*
X5711D02*
X5675D01*
Y4141D01*
X5681Y4141D01*
X5691Y4145D01*
X5699Y4152D01*
X5706Y4161D01*
X5710Y4171D01*
X5711Y4177D01*
D02*
G37*
G36*
X2307Y4041D02*
X2271D01*
Y4005D01*
X2307D01*
Y4041D01*
D02*
G37*
G36*
X5675Y4040D02*
Y4004D01*
X5711D01*
X5710Y4009D01*
X5706Y4020D01*
X5699Y4028D01*
X5691Y4035D01*
X5681Y4039D01*
X5675Y4040D01*
D02*
G37*
G36*
X2261Y4041D02*
X2225D01*
Y4005D01*
X2261D01*
Y4041D01*
D02*
G37*
G36*
X4165Y4991D02*
X4082D01*
Y4909D01*
X4105D01*
Y4521D01*
X4105Y4520D01*
X4097Y4515D01*
X4091Y4507D01*
X4087Y4498D01*
X4086Y4488D01*
X4087Y4479D01*
X4091Y4470D01*
X4097Y4462D01*
X4105Y4456D01*
X4114Y4452D01*
X4123Y4451D01*
X4133Y4452D01*
X4142Y4456D01*
X4150Y4462D01*
X4155Y4470D01*
X4159Y4479D01*
X4160Y4488D01*
X4159Y4498D01*
X4155Y4507D01*
X4150Y4515D01*
X4142Y4520D01*
X4141Y4521D01*
Y4909D01*
X4165D01*
Y4991D01*
D02*
G37*
G36*
X4480Y5092D02*
X4469Y5090D01*
X4459Y5086D01*
X4451Y5079D01*
X4444Y5071D01*
X4440Y5061D01*
X4438Y5050D01*
X4440Y5039D01*
X4444Y5029D01*
X4451Y5021D01*
X4459Y5014D01*
X4469Y5010D01*
X4480Y5008D01*
X4491Y5010D01*
X4501Y5014D01*
X4509Y5021D01*
X4516Y5029D01*
X4520Y5039D01*
X4522Y5050D01*
X4520Y5061D01*
X4516Y5071D01*
X4509Y5079D01*
X4501Y5086D01*
X4491Y5090D01*
X4480Y5092D01*
D02*
G37*
G36*
X4658D02*
X4648Y5090D01*
X4637Y5086D01*
X4629Y5079D01*
X4622Y5071D01*
X4618Y5061D01*
X4617Y5050D01*
X4618Y5039D01*
X4622Y5029D01*
X4629Y5021D01*
X4637Y5014D01*
X4648Y5010D01*
X4658Y5008D01*
X4669Y5010D01*
X4679Y5014D01*
X4688Y5021D01*
X4694Y5029D01*
X4699Y5039D01*
X4700Y5050D01*
X4699Y5061D01*
X4694Y5071D01*
X4688Y5079D01*
X4679Y5086D01*
X4669Y5090D01*
X4658Y5092D01*
D02*
G37*
G36*
X4302D02*
X4291Y5090D01*
X4281Y5086D01*
X4272Y5079D01*
X4266Y5071D01*
X4261Y5061D01*
X4260Y5050D01*
X4261Y5039D01*
X4266Y5029D01*
X4272Y5021D01*
X4281Y5014D01*
X4291Y5010D01*
X4302Y5008D01*
X4312Y5010D01*
X4323Y5014D01*
X4331Y5021D01*
X4338Y5029D01*
X4342Y5039D01*
X4343Y5050D01*
X4342Y5061D01*
X4338Y5071D01*
X4331Y5079D01*
X4323Y5086D01*
X4312Y5090D01*
X4302Y5092D01*
D02*
G37*
G36*
X3945D02*
X3934Y5090D01*
X3924Y5086D01*
X3916Y5079D01*
X3909Y5071D01*
X3905Y5061D01*
X3903Y5050D01*
X3905Y5039D01*
X3909Y5029D01*
X3916Y5021D01*
X3924Y5014D01*
X3934Y5010D01*
X3945Y5008D01*
X3956Y5010D01*
X3966Y5014D01*
X3974Y5021D01*
X3981Y5029D01*
X3985Y5039D01*
X3987Y5050D01*
X3985Y5061D01*
X3981Y5071D01*
X3974Y5079D01*
X3966Y5086D01*
X3956Y5090D01*
X3945Y5092D01*
D02*
G37*
G36*
X4123D02*
X4113Y5090D01*
X4102Y5086D01*
X4094Y5079D01*
X4087Y5071D01*
X4083Y5061D01*
X4082Y5050D01*
X4083Y5039D01*
X4087Y5029D01*
X4094Y5021D01*
X4102Y5014D01*
X4113Y5010D01*
X4123Y5008D01*
X4134Y5010D01*
X4144Y5014D01*
X4153Y5021D01*
X4159Y5029D01*
X4164Y5039D01*
X4165Y5050D01*
X4164Y5061D01*
X4159Y5071D01*
X4153Y5079D01*
X4144Y5086D01*
X4134Y5090D01*
X4123Y5092D01*
D02*
G37*
G36*
X3610Y5180D02*
X3449D01*
Y5019D01*
X3610D01*
Y5180D01*
D02*
G37*
G36*
X2970Y5381D02*
X2955Y5380D01*
X2939Y5375D01*
X2925Y5368D01*
X2913Y5358D01*
X2903Y5345D01*
X2896Y5331D01*
X2891Y5316D01*
X2889Y5300D01*
X2891Y5285D01*
X2896Y5269D01*
X2903Y5255D01*
X2913Y5243D01*
X2925Y5233D01*
X2939Y5226D01*
Y5174D01*
X2925Y5167D01*
X2913Y5157D01*
X2903Y5145D01*
X2896Y5131D01*
X2891Y5115D01*
X2889Y5100D01*
X2890Y5093D01*
X2887Y5089D01*
X2297D01*
X2296Y5091D01*
X2288Y5101D01*
X2279Y5108D01*
X2268Y5114D01*
X2257Y5117D01*
X2245Y5119D01*
X2233Y5117D01*
X2222Y5114D01*
X2211Y5108D01*
X2202Y5101D01*
X2194Y5091D01*
X2188Y5081D01*
X2185Y5069D01*
X2184Y5057D01*
X2185Y5045D01*
X2188Y5034D01*
X2194Y5023D01*
X2202Y5014D01*
X2211Y5006D01*
X2222Y5001D01*
X2233Y4997D01*
X2245Y4996D01*
X2257Y4997D01*
X2268Y5001D01*
X2279Y5006D01*
X2288Y5014D01*
X2296Y5023D01*
X2297Y5025D01*
X2928D01*
X2936Y5026D01*
X2939Y5025D01*
X2955Y5020D01*
X2970Y5019D01*
X2986Y5020D01*
X3002Y5025D01*
X3016Y5032D01*
X3028Y5042D01*
X3038Y5055D01*
X3045Y5069D01*
X3050Y5084D01*
X3052Y5100D01*
X3050Y5115D01*
X3045Y5131D01*
X3038Y5145D01*
X3028Y5157D01*
X3016Y5167D01*
X3002Y5174D01*
Y5226D01*
X3016Y5233D01*
X3028Y5243D01*
X3038Y5255D01*
X3045Y5269D01*
X3050Y5285D01*
X3052Y5300D01*
X3050Y5316D01*
X3045Y5331D01*
X3038Y5345D01*
X3028Y5358D01*
X3016Y5368D01*
X3002Y5375D01*
X2986Y5380D01*
X2970Y5381D01*
D02*
G37*
G36*
X3250D02*
X3234Y5380D01*
X3219Y5375D01*
X3205Y5368D01*
X3193Y5358D01*
X3183Y5345D01*
X3175Y5331D01*
X3170Y5316D01*
X3169Y5300D01*
X3170Y5285D01*
X3175Y5269D01*
X3183Y5255D01*
X3193Y5243D01*
X3205Y5233D01*
X3218Y5226D01*
Y5174D01*
X3205Y5167D01*
X3193Y5157D01*
X3183Y5145D01*
X3175Y5131D01*
X3170Y5115D01*
X3169Y5100D01*
X3170Y5084D01*
X3175Y5069D01*
X2926Y4821D01*
X2670D01*
X2667Y4826D01*
X2656Y4834D01*
X2643Y4839D01*
X2630Y4841D01*
X2617Y4839D01*
X2604Y4834D01*
X2593Y4826D01*
X2590Y4821D01*
X2495D01*
X2492Y4826D01*
X2481Y4834D01*
X2468Y4839D01*
X2455Y4841D01*
X2442Y4839D01*
X2429Y4834D01*
X2418Y4826D01*
X2415Y4821D01*
X2359D01*
X2351Y4820D01*
X2343Y4817D01*
X2337Y4812D01*
X2256Y4731D01*
X2219D01*
Y4649D01*
X2301D01*
Y4686D01*
X2372Y4757D01*
X2415D01*
X2418Y4753D01*
X2429Y4744D01*
X2442Y4739D01*
X2455Y4737D01*
X2468Y4739D01*
X2481Y4744D01*
X2492Y4753D01*
X2495Y4757D01*
X2590D01*
X2593Y4753D01*
X2604Y4744D01*
X2617Y4739D01*
X2630Y4737D01*
X2643Y4739D01*
X2656Y4744D01*
X2667Y4753D01*
X2670Y4757D01*
X2939D01*
X2948Y4758D01*
X2955Y4762D01*
X2962Y4767D01*
X2962Y4767D01*
X2962Y4767D01*
X3220Y5024D01*
X3234Y5020D01*
X3250Y5019D01*
X3266Y5020D01*
X3281Y5025D01*
X3295Y5032D01*
X3307Y5042D01*
X3317Y5055D01*
X3325Y5069D01*
X3330Y5084D01*
X3331Y5100D01*
X3330Y5115D01*
X3325Y5131D01*
X3317Y5145D01*
X3307Y5157D01*
X3295Y5167D01*
X3282Y5174D01*
Y5226D01*
X3295Y5233D01*
X3307Y5243D01*
X3317Y5255D01*
X3325Y5269D01*
X3330Y5285D01*
X3331Y5300D01*
X3330Y5316D01*
X3325Y5331D01*
X3317Y5345D01*
X3307Y5358D01*
X3295Y5368D01*
X3281Y5375D01*
X3266Y5380D01*
X3250Y5381D01*
D02*
G37*
G36*
X4837Y5092D02*
X4826Y5090D01*
X4816Y5086D01*
X4807Y5079D01*
X4801Y5071D01*
X4796Y5061D01*
X4795Y5050D01*
X4796Y5039D01*
X4801Y5029D01*
X4807Y5021D01*
X4816Y5014D01*
X4826Y5010D01*
X4837Y5008D01*
X4847Y5010D01*
X4858Y5014D01*
X4866Y5021D01*
X4873Y5029D01*
X4877Y5039D01*
X4878Y5050D01*
X4877Y5061D01*
X4873Y5071D01*
X4866Y5079D01*
X4858Y5086D01*
X4847Y5090D01*
X4837Y5092D01*
D02*
G37*
G36*
X5015D02*
X5004Y5090D01*
X4994Y5086D01*
X4986Y5079D01*
X4979Y5071D01*
X4975Y5061D01*
X4973Y5050D01*
X4975Y5039D01*
X4979Y5029D01*
X4986Y5021D01*
X4994Y5014D01*
X5004Y5010D01*
X5015Y5008D01*
X5026Y5010D01*
X5036Y5014D01*
X5044Y5021D01*
X5051Y5029D01*
X5055Y5039D01*
X5057Y5050D01*
X5055Y5061D01*
X5051Y5071D01*
X5044Y5079D01*
X5036Y5086D01*
X5026Y5090D01*
X5015Y5092D01*
D02*
G37*
G36*
X4700Y4991D02*
X4617D01*
Y4909D01*
X4640D01*
Y4851D01*
X4351Y4562D01*
X4350Y4562D01*
X4340Y4561D01*
X4331Y4557D01*
X4324Y4551D01*
X4318Y4544D01*
X4314Y4535D01*
X4313Y4525D01*
X4314Y4515D01*
X4318Y4506D01*
X4324Y4499D01*
X4331Y4493D01*
X4340Y4489D01*
X4350Y4488D01*
X4360Y4489D01*
X4369Y4493D01*
X4376Y4499D01*
X4382Y4506D01*
X4386Y4515D01*
X4387Y4525D01*
X4386Y4535D01*
X4383Y4542D01*
X4671Y4831D01*
X4671Y4831D01*
X4671Y4831D01*
X4675Y4836D01*
X4676Y4843D01*
Y4909D01*
X4700D01*
Y4991D01*
D02*
G37*
G36*
X4521D02*
X4439D01*
Y4909D01*
X4462D01*
Y4762D01*
X4271Y4571D01*
X4265Y4572D01*
X4255Y4571D01*
X4246Y4567D01*
X4239Y4561D01*
X4233Y4554D01*
X4229Y4545D01*
X4228Y4535D01*
X4229Y4525D01*
X4233Y4516D01*
X4239Y4509D01*
X4246Y4503D01*
X4255Y4499D01*
X4265Y4498D01*
X4275Y4499D01*
X4284Y4503D01*
X4291Y4509D01*
X4297Y4516D01*
X4301Y4525D01*
X4302Y4535D01*
X4301Y4545D01*
X4299Y4549D01*
X4493Y4742D01*
X4497Y4748D01*
X4498Y4755D01*
X4498Y4755D01*
X4498Y4755D01*
Y4755D01*
Y4909D01*
X4521D01*
Y4991D01*
D02*
G37*
G36*
X2155Y4685D02*
X2119D01*
X2120Y4679D01*
X2124Y4669D01*
X2131Y4661D01*
X2139Y4654D01*
X2149Y4650D01*
X2155Y4649D01*
Y4685D01*
D02*
G37*
G36*
X4878Y4991D02*
X4795D01*
Y4909D01*
X4802D01*
X4803Y4904D01*
X4455Y4556D01*
X4455Y4556D01*
X4445Y4557D01*
X4435Y4556D01*
X4426Y4552D01*
X4419Y4546D01*
X4413Y4539D01*
X4409Y4530D01*
X4408Y4520D01*
X4409Y4510D01*
X4413Y4501D01*
X4419Y4494D01*
X4426Y4488D01*
X4435Y4484D01*
X4445Y4483D01*
X4455Y4484D01*
X4464Y4488D01*
X4471Y4494D01*
X4477Y4501D01*
X4481Y4510D01*
X4482Y4520D01*
X4481Y4530D01*
X4481Y4530D01*
X4849Y4899D01*
X4853Y4905D01*
X4854Y4909D01*
X4878D01*
Y4991D01*
D02*
G37*
G36*
X3986D02*
X3904D01*
Y4909D01*
X3927D01*
Y4622D01*
X3828Y4524D01*
X3823Y4524D01*
X3819Y4529D01*
X3811Y4536D01*
X3801Y4540D01*
X3790Y4542D01*
X3779Y4540D01*
X3769Y4536D01*
X3761Y4529D01*
X3754Y4521D01*
X3750Y4511D01*
X3748Y4500D01*
X3750Y4489D01*
X3754Y4479D01*
X3761Y4471D01*
X3769Y4464D01*
X3779Y4460D01*
X3790Y4458D01*
X3801Y4460D01*
X3811Y4464D01*
X3819Y4471D01*
X3826Y4479D01*
X3827Y4482D01*
X3830D01*
X3837Y4483D01*
X3843Y4487D01*
X3958Y4602D01*
X3962Y4608D01*
X3963Y4615D01*
X3963Y4615D01*
X3963Y4615D01*
Y4615D01*
Y4909D01*
X3986D01*
Y4991D01*
D02*
G37*
G36*
X5056D02*
X4974D01*
Y4934D01*
X4590Y4551D01*
X4590Y4551D01*
X4580Y4552D01*
X4570Y4551D01*
X4561Y4547D01*
X4554Y4541D01*
X4548Y4534D01*
X4544Y4525D01*
X4543Y4515D01*
X4544Y4505D01*
X4548Y4496D01*
X4554Y4489D01*
X4561Y4483D01*
X4570Y4479D01*
X4580Y4478D01*
X4590Y4479D01*
X4599Y4483D01*
X4606Y4489D01*
X4612Y4496D01*
X4616Y4505D01*
X4617Y4515D01*
X4616Y4525D01*
X4616Y4525D01*
X4999Y4909D01*
X5056D01*
Y4991D01*
D02*
G37*
G36*
X2155Y4731D02*
X2149Y4730D01*
X2139Y4726D01*
X2131Y4719D01*
X2124Y4711D01*
X2120Y4701D01*
X2119Y4695D01*
X2155D01*
Y4731D01*
D02*
G37*
G36*
X2165D02*
Y4695D01*
X2201D01*
X2200Y4701D01*
X2196Y4711D01*
X2189Y4719D01*
X2181Y4726D01*
X2171Y4730D01*
X2165Y4731D01*
D02*
G37*
G36*
X5435Y4777D02*
X5424Y4775D01*
X5414Y4771D01*
X5406Y4764D01*
X5399Y4756D01*
X5395Y4746D01*
X5393Y4735D01*
X5395Y4724D01*
X5396Y4721D01*
X4846Y4172D01*
X4845Y4172D01*
X4835Y4171D01*
X4826Y4167D01*
X4819Y4161D01*
X4813Y4154D01*
X4809Y4145D01*
X4808Y4135D01*
X4809Y4125D01*
X4813Y4116D01*
X4819Y4109D01*
X4826Y4103D01*
X4835Y4099D01*
X4845Y4098D01*
X4855Y4099D01*
X4864Y4103D01*
X4871Y4109D01*
X4877Y4116D01*
X4881Y4125D01*
X4882Y4135D01*
X4881Y4145D01*
X4878Y4152D01*
X5389Y4663D01*
X5394Y4662D01*
Y4619D01*
X4937Y4163D01*
X4933Y4157D01*
X4932Y4150D01*
Y4107D01*
X4931Y4107D01*
X4924Y4101D01*
X4918Y4094D01*
X4914Y4085D01*
X4913Y4075D01*
X4914Y4065D01*
X4918Y4056D01*
X4924Y4049D01*
X4931Y4043D01*
X4940Y4039D01*
X4950Y4038D01*
X4960Y4039D01*
X4969Y4043D01*
X4976Y4049D01*
X4982Y4056D01*
X4986Y4065D01*
X4987Y4075D01*
X4986Y4085D01*
X4982Y4094D01*
X4976Y4101D01*
X4969Y4107D01*
X4968Y4107D01*
Y4143D01*
X5419Y4594D01*
X5476D01*
Y4676D01*
X5408D01*
X5407Y4681D01*
X5421Y4696D01*
X5424Y4695D01*
X5435Y4693D01*
X5446Y4695D01*
X5456Y4699D01*
X5464Y4706D01*
X5471Y4714D01*
X5475Y4724D01*
X5477Y4735D01*
X5475Y4746D01*
X5471Y4756D01*
X5464Y4764D01*
X5456Y4771D01*
X5446Y4775D01*
X5435Y4777D01*
D02*
G37*
G36*
X2201Y4685D02*
X2165D01*
Y4649D01*
X2171Y4650D01*
X2181Y4654D01*
X2189Y4661D01*
X2196Y4669D01*
X2200Y4679D01*
X2201Y4685D01*
D02*
G37*
G36*
X4343Y4991D02*
X4260D01*
Y4909D01*
X4284D01*
Y4724D01*
X4283Y4724D01*
X4275Y4718D01*
X4270Y4710D01*
X4266Y4701D01*
X4265Y4692D01*
X4266Y4682D01*
X4270Y4673D01*
X4275Y4665D01*
X4283Y4660D01*
X4292Y4656D01*
X4302Y4655D01*
X4311Y4656D01*
X4320Y4660D01*
X4328Y4665D01*
X4334Y4673D01*
X4338Y4682D01*
X4339Y4692D01*
X4338Y4701D01*
X4334Y4710D01*
X4328Y4718D01*
X4320Y4724D01*
X4320Y4724D01*
Y4909D01*
X4343D01*
Y4991D01*
D02*
G37*
G36*
X3050Y4210D02*
X3028Y4208D01*
X3007Y4203D01*
X2986Y4195D01*
X2968Y4183D01*
X2951Y4169D01*
X2937Y4152D01*
X2925Y4134D01*
X2917Y4113D01*
X2912Y4092D01*
X2910Y4070D01*
X2912Y4048D01*
X2917Y4027D01*
X2925Y4006D01*
X2937Y3988D01*
X2951Y3971D01*
X2968Y3957D01*
X2986Y3945D01*
X3007Y3937D01*
X3028Y3932D01*
X3050Y3930D01*
X3072Y3932D01*
X3093Y3937D01*
X3114Y3945D01*
X3132Y3957D01*
X3149Y3971D01*
X3163Y3988D01*
X3175Y4006D01*
X3183Y4027D01*
X3188Y4048D01*
X3190Y4070D01*
X3188Y4092D01*
X3183Y4113D01*
X3175Y4134D01*
X3163Y4152D01*
X3149Y4169D01*
X3132Y4183D01*
X3114Y4195D01*
X3093Y4203D01*
X3072Y4208D01*
X3050Y4210D01*
D02*
G37*
G36*
X2550Y3435D02*
X2514D01*
X2515Y3429D01*
X2519Y3419D01*
X2526Y3411D01*
X2534Y3404D01*
X2544Y3400D01*
X2550Y3399D01*
Y3435D01*
D02*
G37*
G36*
X2596D02*
X2560D01*
Y3399D01*
X2566Y3400D01*
X2576Y3404D01*
X2584Y3411D01*
X2591Y3419D01*
X2595Y3429D01*
X2596Y3435D01*
D02*
G37*
G36*
X2396Y3481D02*
X2314D01*
Y3399D01*
X2396D01*
Y3481D01*
D02*
G37*
G36*
X2655Y3482D02*
X2644Y3480D01*
X2634Y3476D01*
X2626Y3469D01*
X2619Y3461D01*
X2615Y3451D01*
X2613Y3440D01*
X2615Y3429D01*
X2619Y3419D01*
X2626Y3411D01*
X2634Y3404D01*
X2644Y3400D01*
X2655Y3398D01*
X2666Y3400D01*
X2676Y3404D01*
X2684Y3411D01*
X2691Y3419D01*
X2695Y3429D01*
X2697Y3440D01*
X2695Y3451D01*
X2691Y3461D01*
X2684Y3469D01*
X2676Y3476D01*
X2666Y3480D01*
X2655Y3482D01*
D02*
G37*
G36*
X2855D02*
X2844Y3480D01*
X2834Y3476D01*
X2826Y3469D01*
X2819Y3461D01*
X2815Y3451D01*
X2813Y3440D01*
X2815Y3429D01*
X2819Y3419D01*
X2826Y3411D01*
X2834Y3404D01*
X2844Y3400D01*
X2855Y3398D01*
X2866Y3400D01*
X2876Y3404D01*
X2884Y3411D01*
X2891Y3419D01*
X2895Y3429D01*
X2897Y3440D01*
X2895Y3451D01*
X2891Y3461D01*
X2884Y3469D01*
X2876Y3476D01*
X2866Y3480D01*
X2855Y3482D01*
D02*
G37*
G36*
X3285Y3455D02*
X3237D01*
Y3421D01*
X3285D01*
Y3455D01*
D02*
G37*
G36*
X3343D02*
X3295D01*
Y3421D01*
X3343D01*
Y3455D01*
D02*
G37*
G36*
X5711Y3445D02*
X5675D01*
Y3409D01*
X5681Y3410D01*
X5691Y3414D01*
X5699Y3421D01*
X5706Y3429D01*
X5710Y3439D01*
X5711Y3445D01*
D02*
G37*
G36*
X5511Y3491D02*
X5429D01*
Y3409D01*
X5511D01*
Y3491D01*
D02*
G37*
G36*
X5665Y3445D02*
X5629D01*
X5630Y3439D01*
X5634Y3429D01*
X5641Y3421D01*
X5649Y3414D01*
X5659Y3410D01*
X5665Y3409D01*
Y3445D01*
D02*
G37*
G36*
X4410Y3316D02*
X4370D01*
Y3290D01*
X4410D01*
Y3316D01*
D02*
G37*
G36*
X5106Y3266D02*
X5024D01*
Y3184D01*
X5106D01*
Y3266D01*
D02*
G37*
G36*
X4660Y3220D02*
X4624D01*
X4625Y3214D01*
X4629Y3204D01*
X4636Y3196D01*
X4644Y3189D01*
X4654Y3185D01*
X4660Y3184D01*
Y3220D01*
D02*
G37*
G36*
X4965Y3267D02*
X4954Y3265D01*
X4944Y3261D01*
X4936Y3254D01*
X4929Y3246D01*
X4925Y3236D01*
X4923Y3225D01*
X4925Y3214D01*
X4929Y3204D01*
X4936Y3196D01*
X4944Y3189D01*
X4954Y3185D01*
X4965Y3183D01*
X4976Y3185D01*
X4986Y3189D01*
X4994Y3196D01*
X5001Y3204D01*
X5005Y3214D01*
X5007Y3225D01*
X5005Y3236D01*
X5001Y3246D01*
X4994Y3254D01*
X4986Y3261D01*
X4976Y3265D01*
X4965Y3267D01*
D02*
G37*
G36*
X4665Y4342D02*
X4655Y4341D01*
X4646Y4337D01*
X4639Y4331D01*
X4633Y4324D01*
X4629Y4315D01*
X4628Y4305D01*
X4629Y4295D01*
X4633Y4286D01*
X4639Y4279D01*
X4646Y4273D01*
X4647Y4273D01*
Y4060D01*
X4647Y4060D01*
X4647D01*
X4648Y4053D01*
X4652Y4047D01*
X4747Y3953D01*
Y3262D01*
X4744Y3261D01*
X4736Y3254D01*
X4729Y3246D01*
X4725Y3236D01*
X4723Y3225D01*
X4725Y3214D01*
X4729Y3204D01*
X4736Y3196D01*
X4744Y3189D01*
X4754Y3185D01*
X4765Y3183D01*
X4776Y3185D01*
X4786Y3189D01*
X4794Y3196D01*
X4801Y3204D01*
X4805Y3214D01*
X4807Y3225D01*
X4805Y3236D01*
X4801Y3246D01*
X4794Y3254D01*
X4786Y3261D01*
X4783Y3262D01*
Y3960D01*
X4782Y3967D01*
X4778Y3973D01*
X4683Y4067D01*
Y4273D01*
X4684Y4273D01*
X4691Y4279D01*
X4697Y4286D01*
X4701Y4295D01*
X4702Y4305D01*
X4701Y4315D01*
X4697Y4324D01*
X4691Y4331D01*
X4684Y4337D01*
X4675Y4341D01*
X4665Y4342D01*
D02*
G37*
G36*
X4610Y4447D02*
X4600Y4446D01*
X4591Y4442D01*
X4584Y4436D01*
X4578Y4429D01*
X4574Y4420D01*
X4573Y4410D01*
X4574Y4400D01*
X4578Y4391D01*
X4584Y4384D01*
X4591Y4378D01*
X4600Y4374D01*
X4610Y4373D01*
X4620Y4374D01*
X4629Y4378D01*
X4636Y4384D01*
X4642Y4391D01*
X4642Y4392D01*
X4658D01*
X4717Y4333D01*
Y4100D01*
X4717Y4100D01*
X4717D01*
X4718Y4093D01*
X4722Y4087D01*
X4847Y3963D01*
Y3262D01*
X4844Y3261D01*
X4836Y3254D01*
X4829Y3246D01*
X4825Y3236D01*
X4823Y3225D01*
X4825Y3214D01*
X4829Y3204D01*
X4836Y3196D01*
X4844Y3189D01*
X4854Y3185D01*
X4865Y3183D01*
X4876Y3185D01*
X4886Y3189D01*
X4894Y3196D01*
X4901Y3204D01*
X4905Y3214D01*
X4907Y3225D01*
X4905Y3236D01*
X4901Y3246D01*
X4894Y3254D01*
X4886Y3261D01*
X4883Y3262D01*
Y3970D01*
X4882Y3977D01*
X4878Y3983D01*
X4753Y4107D01*
Y4340D01*
X4752Y4347D01*
X4748Y4353D01*
X4678Y4423D01*
X4672Y4427D01*
X4665Y4428D01*
X4642D01*
X4642Y4429D01*
X4636Y4436D01*
X4629Y4442D01*
X4620Y4446D01*
X4610Y4447D01*
D02*
G37*
G36*
X2455Y3482D02*
X2444Y3480D01*
X2434Y3476D01*
X2426Y3469D01*
X2419Y3461D01*
X2415Y3451D01*
X2413Y3440D01*
X2415Y3429D01*
X2419Y3419D01*
X2426Y3411D01*
X2434Y3404D01*
X2444Y3400D01*
X2455Y3398D01*
X2466Y3400D01*
X2469Y3401D01*
X2482Y3388D01*
Y3350D01*
X2483Y3343D01*
X2487Y3337D01*
X2539Y3285D01*
X2539Y3285D01*
X2538Y3275D01*
X2539Y3265D01*
X2543Y3256D01*
X2549Y3249D01*
X2556Y3243D01*
X2565Y3239D01*
X2575Y3238D01*
X2585Y3239D01*
X2594Y3243D01*
X2601Y3249D01*
X2607Y3256D01*
X2611Y3265D01*
X2612Y3275D01*
X2611Y3285D01*
X2607Y3294D01*
X2601Y3301D01*
X2594Y3307D01*
X2585Y3311D01*
X2575Y3312D01*
X2565Y3311D01*
X2565Y3311D01*
X2518Y3357D01*
Y3395D01*
X2517Y3402D01*
X2513Y3408D01*
X2494Y3426D01*
X2495Y3429D01*
X2497Y3440D01*
X2495Y3451D01*
X2491Y3461D01*
X2484Y3469D01*
X2476Y3476D01*
X2466Y3480D01*
X2455Y3482D01*
D02*
G37*
G36*
X4360Y3316D02*
X4320D01*
Y3290D01*
X4360D01*
Y3316D01*
D02*
G37*
G36*
X4670Y3266D02*
Y3230D01*
X4706D01*
X4705Y3236D01*
X4701Y3246D01*
X4694Y3254D01*
X4686Y3261D01*
X4676Y3265D01*
X4670Y3266D01*
D02*
G37*
G36*
X4706Y3220D02*
X4670D01*
Y3184D01*
X4676Y3185D01*
X4686Y3189D01*
X4694Y3196D01*
X4701Y3204D01*
X4705Y3214D01*
X4706Y3220D01*
D02*
G37*
G36*
X4660Y3266D02*
X4654Y3265D01*
X4644Y3261D01*
X4636Y3254D01*
X4629Y3246D01*
X4625Y3236D01*
X4624Y3230D01*
X4660D01*
Y3266D01*
D02*
G37*
G36*
X3679Y3455D02*
X3631D01*
Y3421D01*
X3679D01*
Y3455D01*
D02*
G37*
G36*
X5675Y3674D02*
Y3638D01*
X5711D01*
X5710Y3644D01*
X5706Y3654D01*
X5699Y3662D01*
X5691Y3669D01*
X5681Y3673D01*
X5675Y3674D01*
D02*
G37*
G36*
X3715Y3777D02*
X3705Y3776D01*
X3696Y3772D01*
X3689Y3766D01*
X3683Y3759D01*
X3683Y3758D01*
X3430D01*
X3423Y3757D01*
X3417Y3753D01*
X3213Y3548D01*
X2845D01*
X2838Y3547D01*
X2832Y3543D01*
X2769Y3479D01*
X2766Y3480D01*
X2755Y3482D01*
X2744Y3480D01*
X2734Y3476D01*
X2726Y3469D01*
X2719Y3461D01*
X2715Y3451D01*
X2713Y3440D01*
X2715Y3429D01*
X2719Y3419D01*
X2726Y3411D01*
X2734Y3404D01*
X2744Y3400D01*
X2755Y3398D01*
X2766Y3400D01*
X2776Y3404D01*
X2784Y3411D01*
X2791Y3419D01*
X2795Y3429D01*
X2797Y3440D01*
X2795Y3451D01*
X2794Y3454D01*
X2852Y3512D01*
X3220D01*
X3227Y3513D01*
X3233Y3517D01*
X3437Y3722D01*
X3683D01*
X3683Y3721D01*
X3689Y3714D01*
X3696Y3708D01*
X3705Y3704D01*
X3715Y3703D01*
X3725Y3704D01*
X3734Y3708D01*
X3741Y3714D01*
X3747Y3721D01*
X3751Y3730D01*
X3752Y3740D01*
X3751Y3750D01*
X3747Y3759D01*
X3741Y3766D01*
X3734Y3772D01*
X3725Y3776D01*
X3715Y3777D01*
D02*
G37*
G36*
X5665Y3674D02*
X5659Y3673D01*
X5649Y3669D01*
X5641Y3662D01*
X5634Y3654D01*
X5630Y3644D01*
X5629Y3638D01*
X5665D01*
Y3674D01*
D02*
G37*
G36*
X5711Y3628D02*
X5675D01*
Y3592D01*
X5681Y3593D01*
X5691Y3597D01*
X5699Y3603D01*
X5706Y3612D01*
X5710Y3622D01*
X5711Y3628D01*
D02*
G37*
G36*
X4025Y3692D02*
X4015Y3691D01*
X4006Y3687D01*
X3999Y3681D01*
X3993Y3674D01*
X3989Y3665D01*
X3988Y3655D01*
X3989Y3645D01*
X3989Y3645D01*
X3909Y3565D01*
X3863D01*
Y3553D01*
X3820D01*
X3813Y3552D01*
X3807Y3548D01*
X3787Y3528D01*
X3783Y3522D01*
X3782Y3515D01*
Y3407D01*
X3698Y3322D01*
X3631D01*
Y3243D01*
X3646D01*
X3647Y3242D01*
X3644Y3238D01*
X3347D01*
X3343Y3243D01*
X3343Y3243D01*
X3343D01*
X3343Y3243D01*
Y3322D01*
X3237D01*
Y3301D01*
X3048D01*
X3041Y3300D01*
X3035Y3296D01*
X2990Y3251D01*
X2990Y3251D01*
X2980Y3252D01*
X2970Y3251D01*
X2961Y3247D01*
X2954Y3241D01*
X2948Y3234D01*
X2944Y3225D01*
X2943Y3215D01*
X2944Y3205D01*
X2948Y3196D01*
X2954Y3189D01*
X2961Y3183D01*
X2970Y3179D01*
X2980Y3178D01*
X2990Y3179D01*
X2999Y3183D01*
X3006Y3189D01*
X3012Y3196D01*
X3016Y3205D01*
X3017Y3215D01*
X3016Y3225D01*
X3016Y3225D01*
X3055Y3265D01*
X3237D01*
Y3243D01*
X3291D01*
X3327Y3207D01*
X3333Y3203D01*
X3340Y3202D01*
X3655D01*
X3662Y3203D01*
X3668Y3207D01*
X3696Y3236D01*
X3700Y3242D01*
X3701Y3243D01*
X3737D01*
Y3310D01*
X3813Y3386D01*
X3817Y3392D01*
X3818Y3399D01*
Y3508D01*
X3827Y3517D01*
X3863D01*
Y3507D01*
X3863Y3507D01*
X3863D01*
X3863Y3505D01*
Y3504D01*
Y3504D01*
X3863Y3502D01*
X3863Y3502D01*
X3863D01*
Y3444D01*
X3887D01*
X3888Y3438D01*
X3892Y3432D01*
X4009Y3315D01*
X4009Y3315D01*
X4008Y3305D01*
X4009Y3295D01*
X4013Y3286D01*
X4019Y3279D01*
X4026Y3273D01*
X4035Y3269D01*
X4045Y3268D01*
X4055Y3269D01*
X4055Y3269D01*
X4122Y3202D01*
X4128Y3198D01*
X4135Y3197D01*
X4320D01*
Y3189D01*
X4410D01*
Y3202D01*
X4531D01*
X4536Y3196D01*
X4544Y3189D01*
X4554Y3185D01*
X4565Y3183D01*
X4576Y3185D01*
X4586Y3189D01*
X4594Y3196D01*
X4601Y3204D01*
X4605Y3214D01*
X4607Y3225D01*
X4605Y3236D01*
X4601Y3246D01*
X4594Y3254D01*
X4586Y3261D01*
X4576Y3265D01*
X4565Y3267D01*
X4554Y3265D01*
X4544Y3261D01*
X4536Y3254D01*
X4529Y3246D01*
X4526Y3238D01*
X4410D01*
Y3250D01*
X4410Y3250D01*
D01*
D01*
X4410Y3252D01*
Y3252D01*
Y3253D01*
X4410Y3254D01*
D01*
X4410Y3255D01*
X4410Y3255D01*
X4410D01*
Y3280D01*
X4320D01*
Y3255D01*
X4320Y3255D01*
X4320D01*
X4320Y3254D01*
Y3253D01*
Y3252D01*
X4320Y3250D01*
X4320Y3250D01*
X4320D01*
Y3233D01*
X4142D01*
X4081Y3295D01*
X4081Y3295D01*
X4082Y3305D01*
X4081Y3315D01*
X4077Y3324D01*
X4071Y3331D01*
X4064Y3337D01*
X4055Y3341D01*
X4045Y3342D01*
X4035Y3341D01*
X4035Y3341D01*
X3936Y3440D01*
X3938Y3444D01*
X3947D01*
Y3502D01*
X3947Y3502D01*
D01*
D01*
X3947Y3504D01*
Y3504D01*
Y3504D01*
X3947Y3505D01*
D01*
X3947Y3507D01*
X3947Y3507D01*
X3947D01*
Y3552D01*
X4015Y3619D01*
X4015Y3619D01*
X4025Y3618D01*
X4035Y3619D01*
X4044Y3623D01*
X4051Y3629D01*
X4057Y3636D01*
X4061Y3645D01*
X4062Y3655D01*
X4061Y3665D01*
X4057Y3674D01*
X4051Y3681D01*
X4044Y3687D01*
X4035Y3691D01*
X4025Y3692D01*
D02*
G37*
G36*
X5665Y3857D02*
X5659Y3856D01*
X5649Y3852D01*
X5641Y3845D01*
X5634Y3837D01*
X5630Y3827D01*
X5629Y3821D01*
X5665D01*
Y3857D01*
D02*
G37*
G36*
X5675D02*
Y3821D01*
X5711D01*
X5710Y3827D01*
X5706Y3837D01*
X5699Y3845D01*
X5691Y3852D01*
X5681Y3856D01*
X5675Y3857D01*
D02*
G37*
G36*
X5711Y3811D02*
X5675D01*
Y3775D01*
X5681Y3775D01*
X5691Y3780D01*
X5699Y3786D01*
X5706Y3795D01*
X5710Y3805D01*
X5711Y3811D01*
D02*
G37*
G36*
X5511Y3857D02*
X5429D01*
Y3774D01*
X5511D01*
Y3857D01*
D02*
G37*
G36*
X5665Y3811D02*
X5629D01*
X5630Y3805D01*
X5634Y3795D01*
X5641Y3786D01*
X5649Y3780D01*
X5659Y3775D01*
X5665Y3775D01*
Y3811D01*
D02*
G37*
G36*
Y3628D02*
X5629D01*
X5630Y3622D01*
X5634Y3612D01*
X5641Y3603D01*
X5649Y3597D01*
X5659Y3593D01*
X5665Y3592D01*
Y3628D01*
D02*
G37*
G36*
Y3491D02*
X5659Y3490D01*
X5649Y3486D01*
X5641Y3479D01*
X5634Y3471D01*
X5630Y3461D01*
X5629Y3455D01*
X5665D01*
Y3491D01*
D02*
G37*
G36*
X5675D02*
Y3455D01*
X5711D01*
X5710Y3461D01*
X5706Y3471D01*
X5699Y3479D01*
X5691Y3486D01*
X5681Y3490D01*
X5675Y3491D01*
D02*
G37*
G36*
X2560Y3481D02*
Y3445D01*
X2596D01*
X2595Y3451D01*
X2591Y3461D01*
X2584Y3469D01*
X2576Y3476D01*
X2566Y3480D01*
X2560Y3481D01*
D02*
G37*
G36*
X3737Y3455D02*
X3689D01*
Y3421D01*
X3737D01*
Y3455D01*
D02*
G37*
G36*
X2550Y3481D02*
X2544Y3480D01*
X2534Y3476D01*
X2526Y3469D01*
X2519Y3461D01*
X2515Y3451D01*
X2514Y3445D01*
X2550D01*
Y3481D01*
D02*
G37*
G36*
X3737Y3499D02*
X3689D01*
Y3465D01*
X3737D01*
Y3499D01*
D02*
G37*
G36*
X5511Y3674D02*
X5429D01*
Y3592D01*
X5511D01*
Y3674D01*
D02*
G37*
G36*
X3679Y3499D02*
X3631D01*
Y3465D01*
X3679D01*
Y3499D01*
D02*
G37*
G36*
X3285D02*
X3237D01*
Y3465D01*
X3285D01*
Y3499D01*
D02*
G37*
G36*
X3343D02*
X3295D01*
Y3465D01*
X3343D01*
Y3499D01*
D02*
G37*
G36*
X3940Y5145D02*
X3904D01*
X3905Y5139D01*
X3909Y5129D01*
X3916Y5121D01*
X3924Y5114D01*
X3934Y5110D01*
X3940Y5109D01*
Y5145D01*
D02*
G37*
G36*
X4480Y6204D02*
X4472Y6203D01*
X4460Y6198D01*
X4450Y6190D01*
X4442Y6180D01*
X4437Y6168D01*
X4436Y6160D01*
X4480D01*
Y6204D01*
D02*
G37*
G36*
X4490D02*
Y6160D01*
X4534D01*
X4533Y6168D01*
X4528Y6180D01*
X4520Y6190D01*
X4510Y6198D01*
X4498Y6203D01*
X4490Y6204D01*
D02*
G37*
G36*
X2565D02*
Y6160D01*
X2609D01*
X2608Y6168D01*
X2603Y6180D01*
X2595Y6190D01*
X2585Y6198D01*
X2573Y6203D01*
X2565Y6204D01*
D02*
G37*
G36*
X5705Y6203D02*
X5649D01*
X5650Y6196D01*
X5653Y6184D01*
X5659Y6174D01*
X5667Y6164D01*
X5676Y6157D01*
X5687Y6151D01*
X5698Y6148D01*
X5705Y6147D01*
Y6203D01*
D02*
G37*
G36*
X2555Y6204D02*
X2547Y6203D01*
X2535Y6198D01*
X2525Y6190D01*
X2517Y6180D01*
X2512Y6168D01*
X2511Y6160D01*
X2555D01*
Y6204D01*
D02*
G37*
G36*
X5130Y6188D02*
X5090D01*
Y6162D01*
X5130D01*
Y6188D01*
D02*
G37*
G36*
X5205D02*
X5165D01*
Y6162D01*
X5205D01*
Y6188D01*
D02*
G37*
G36*
X5080D02*
X5039D01*
Y6162D01*
X5080D01*
Y6188D01*
D02*
G37*
G36*
X4950Y6186D02*
X4913D01*
Y6162D01*
X4950D01*
Y6186D01*
D02*
G37*
G36*
X4997D02*
X4960D01*
Y6162D01*
X4997D01*
Y6186D01*
D02*
G37*
G36*
X4720Y6164D02*
Y6130D01*
X4754D01*
X4753Y6135D01*
X4749Y6145D01*
X4743Y6153D01*
X4735Y6159D01*
X4725Y6163D01*
X4720Y6164D01*
D02*
G37*
G36*
X4710Y6120D02*
X4676D01*
X4677Y6115D01*
X4681Y6105D01*
X4687Y6097D01*
X4695Y6091D01*
X4705Y6087D01*
X4710Y6086D01*
Y6120D01*
D02*
G37*
G36*
X4754D02*
X4720D01*
Y6086D01*
X4725Y6087D01*
X4735Y6091D01*
X4743Y6097D01*
X4749Y6105D01*
X4753Y6115D01*
X4754Y6120D01*
D02*
G37*
G36*
X4490Y6079D02*
Y6035D01*
X4534D01*
X4533Y6043D01*
X4528Y6055D01*
X4520Y6065D01*
X4510Y6073D01*
X4498Y6078D01*
X4490Y6079D01*
D02*
G37*
G36*
X4534Y6025D02*
X4490D01*
Y5981D01*
X4498Y5982D01*
X4510Y5987D01*
X4520Y5995D01*
X4528Y6005D01*
X4533Y6017D01*
X4534Y6025D01*
D02*
G37*
G36*
X4480Y6079D02*
X4472Y6078D01*
X4460Y6073D01*
X4450Y6065D01*
X4442Y6055D01*
X4437Y6043D01*
X4436Y6035D01*
X4480D01*
Y6079D01*
D02*
G37*
G36*
X4534Y6150D02*
X4490D01*
Y6106D01*
X4498Y6107D01*
X4510Y6112D01*
X4520Y6120D01*
X4528Y6130D01*
X4533Y6142D01*
X4534Y6150D01*
D02*
G37*
G36*
X4710Y6164D02*
X4705Y6163D01*
X4695Y6159D01*
X4687Y6153D01*
X4681Y6145D01*
X4677Y6135D01*
X4676Y6130D01*
X4710D01*
Y6164D01*
D02*
G37*
G36*
X4480Y6150D02*
X4436D01*
X4437Y6142D01*
X4442Y6130D01*
X4450Y6120D01*
X4460Y6112D01*
X4472Y6107D01*
X4480Y6106D01*
Y6150D01*
D02*
G37*
G36*
X2555D02*
X2511D01*
X2512Y6142D01*
X2517Y6130D01*
X2525Y6120D01*
X2535Y6112D01*
X2547Y6107D01*
X2555Y6106D01*
Y6150D01*
D02*
G37*
G36*
X2609D02*
X2565D01*
Y6106D01*
X2573Y6107D01*
X2585Y6112D01*
X2595Y6120D01*
X2603Y6130D01*
X2608Y6142D01*
X2609Y6150D01*
D02*
G37*
G36*
X5255Y6188D02*
X5215D01*
Y6162D01*
X5255D01*
Y6188D01*
D02*
G37*
G36*
X4730Y6633D02*
Y6595D01*
X4768D01*
X4767Y6601D01*
X4762Y6612D01*
X4756Y6621D01*
X4747Y6627D01*
X4736Y6632D01*
X4730Y6633D01*
D02*
G37*
G36*
X4485Y6705D02*
X4472Y6703D01*
X4460Y6698D01*
X4450Y6690D01*
X4442Y6680D01*
X4437Y6668D01*
X4435Y6655D01*
X4437Y6642D01*
X4442Y6630D01*
X4450Y6620D01*
X4460Y6612D01*
X4472Y6607D01*
X4485Y6605D01*
X4498Y6607D01*
X4510Y6612D01*
X4520Y6620D01*
X4528Y6630D01*
X4533Y6642D01*
X4535Y6655D01*
X4533Y6668D01*
X4528Y6680D01*
X4520Y6690D01*
X4510Y6698D01*
X4498Y6703D01*
X4485Y6705D01*
D02*
G37*
G36*
X4720Y6633D02*
X4714Y6632D01*
X4703Y6627D01*
X4694Y6621D01*
X4688Y6612D01*
X4683Y6601D01*
X4682Y6595D01*
X4720D01*
Y6633D01*
D02*
G37*
G36*
X4768Y6585D02*
X4730D01*
Y6547D01*
X4736Y6548D01*
X4747Y6553D01*
X4756Y6559D01*
X4762Y6568D01*
X4767Y6579D01*
X4768Y6585D01*
D02*
G37*
G36*
X2270Y6628D02*
X2264Y6627D01*
X2253Y6622D01*
X2244Y6616D01*
X2238Y6607D01*
X2233Y6596D01*
X2232Y6590D01*
X2270D01*
Y6628D01*
D02*
G37*
G36*
X5705Y6759D02*
X5698Y6758D01*
X5687Y6754D01*
X5676Y6749D01*
X5667Y6741D01*
X5659Y6732D01*
X5653Y6721D01*
X5650Y6710D01*
X5649Y6703D01*
X5705D01*
Y6759D01*
D02*
G37*
G36*
X5715D02*
Y6703D01*
X5771D01*
X5770Y6710D01*
X5767Y6721D01*
X5761Y6732D01*
X5753Y6741D01*
X5744Y6749D01*
X5733Y6754D01*
X5722Y6758D01*
X5715Y6759D01*
D02*
G37*
G36*
X5253Y6720D02*
X5215D01*
Y6682D01*
X5221Y6683D01*
X5232Y6687D01*
X5241Y6694D01*
X5248Y6703D01*
X5252Y6714D01*
X5253Y6720D01*
D02*
G37*
G36*
X5705Y6693D02*
X5649D01*
X5650Y6686D01*
X5653Y6674D01*
X5659Y6664D01*
X5667Y6654D01*
X5676Y6647D01*
X5687Y6641D01*
X5698Y6638D01*
X5705Y6637D01*
Y6693D01*
D02*
G37*
G36*
X5771D02*
X5715D01*
Y6637D01*
X5722Y6638D01*
X5733Y6641D01*
X5744Y6647D01*
X5753Y6654D01*
X5761Y6664D01*
X5767Y6674D01*
X5770Y6686D01*
X5771Y6693D01*
D02*
G37*
G36*
X4720Y6585D02*
X4682D01*
X4683Y6579D01*
X4688Y6568D01*
X4694Y6559D01*
X4703Y6553D01*
X4714Y6548D01*
X4720Y6547D01*
Y6585D01*
D02*
G37*
G36*
X5715Y6269D02*
Y6213D01*
X5771D01*
X5770Y6220D01*
X5767Y6231D01*
X5761Y6242D01*
X5753Y6251D01*
X5744Y6259D01*
X5733Y6264D01*
X5722Y6268D01*
X5715Y6269D01*
D02*
G37*
G36*
X5135Y6377D02*
X5125Y6376D01*
X5116Y6372D01*
X5109Y6366D01*
X5103Y6359D01*
X5099Y6350D01*
X5072Y6322D01*
X5068Y6317D01*
X5067Y6310D01*
Y6289D01*
X5039D01*
Y6228D01*
X5039Y6228D01*
X5039D01*
X5039Y6226D01*
Y6226D01*
Y6225D01*
X5039Y6223D01*
X5039Y6223D01*
X5039D01*
Y6198D01*
X5130D01*
Y6223D01*
X5130Y6223D01*
D01*
D01*
X5130Y6225D01*
Y6225D01*
Y6226D01*
X5130Y6226D01*
D01*
X5130Y6228D01*
X5130Y6228D01*
X5130D01*
Y6289D01*
X5103D01*
Y6302D01*
X5112Y6311D01*
X5116Y6308D01*
X5125Y6304D01*
X5135Y6303D01*
X5145Y6304D01*
X5154Y6308D01*
X5161Y6314D01*
X5167Y6321D01*
X5171Y6330D01*
X5172Y6340D01*
X5171Y6350D01*
X5167Y6359D01*
X5161Y6366D01*
X5154Y6372D01*
X5145Y6376D01*
X5135Y6377D01*
D02*
G37*
G36*
X5705Y6269D02*
X5698Y6268D01*
X5687Y6264D01*
X5676Y6259D01*
X5667Y6251D01*
X5659Y6242D01*
X5653Y6231D01*
X5650Y6220D01*
X5649Y6213D01*
X5705D01*
Y6269D01*
D02*
G37*
G36*
X5330Y6188D02*
X5290D01*
Y6162D01*
X5330D01*
Y6188D01*
D02*
G37*
G36*
X5380D02*
X5340D01*
Y6162D01*
X5380D01*
Y6188D01*
D02*
G37*
G36*
X2270Y6580D02*
X2232D01*
X2233Y6574D01*
X2238Y6563D01*
X2244Y6554D01*
X2253Y6548D01*
X2264Y6543D01*
X2270Y6542D01*
Y6580D01*
D02*
G37*
G36*
X2318D02*
X2280D01*
Y6542D01*
X2286Y6543D01*
X2297Y6548D01*
X2306Y6554D01*
X2312Y6563D01*
X2317Y6574D01*
X2318Y6580D01*
D02*
G37*
G36*
X5242Y6491D02*
X5160D01*
Y6448D01*
X5090D01*
X5083Y6447D01*
X5077Y6443D01*
X4942Y6308D01*
X4938Y6302D01*
X4937Y6295D01*
Y6282D01*
X4913D01*
Y6224D01*
X4913Y6224D01*
X4913D01*
X4913Y6223D01*
Y6222D01*
Y6221D01*
X4913Y6219D01*
X4913Y6219D01*
X4913D01*
Y6196D01*
X4997D01*
Y6219D01*
X4997Y6219D01*
D01*
D01*
X4997Y6221D01*
Y6221D01*
Y6222D01*
X4997Y6223D01*
D01*
X4997Y6224D01*
X4997Y6224D01*
X4997D01*
Y6282D01*
X4973D01*
Y6288D01*
X5097Y6412D01*
X5160D01*
Y6409D01*
X5242D01*
Y6491D01*
D02*
G37*
G36*
X2560Y6455D02*
X2547Y6453D01*
X2535Y6448D01*
X2525Y6440D01*
X2517Y6430D01*
X2512Y6418D01*
X2510Y6405D01*
X2512Y6392D01*
X2517Y6380D01*
X2525Y6370D01*
X2535Y6362D01*
X2547Y6357D01*
X2560Y6355D01*
X2573Y6357D01*
X2585Y6362D01*
X2595Y6370D01*
X2603Y6380D01*
X2608Y6392D01*
X2610Y6405D01*
X2608Y6418D01*
X2603Y6430D01*
X2595Y6440D01*
X2585Y6448D01*
X2573Y6453D01*
X2560Y6455D01*
D02*
G37*
G36*
X4715Y6465D02*
X4705Y6463D01*
X4695Y6459D01*
X4692Y6457D01*
X4650D01*
X4642Y6456D01*
X4634Y6453D01*
X4628Y6447D01*
X4588Y6407D01*
X4582Y6401D01*
X4579Y6393D01*
X4578Y6385D01*
Y6333D01*
X4557Y6312D01*
X4523D01*
X4520Y6315D01*
X4510Y6323D01*
X4498Y6328D01*
X4485Y6330D01*
X4472Y6328D01*
X4460Y6323D01*
X4450Y6315D01*
X4442Y6305D01*
X4437Y6293D01*
X4435Y6280D01*
X4437Y6267D01*
X4442Y6255D01*
X4450Y6245D01*
X4460Y6237D01*
X4472Y6232D01*
X4485Y6230D01*
X4498Y6232D01*
X4510Y6237D01*
X4520Y6245D01*
X4523Y6248D01*
X4570D01*
X4578Y6249D01*
X4586Y6252D01*
X4592Y6258D01*
X4632Y6298D01*
X4638Y6304D01*
X4641Y6312D01*
X4641Y6312D01*
X4641Y6312D01*
Y6312D01*
X4642Y6320D01*
Y6372D01*
X4663Y6393D01*
X4692D01*
X4695Y6391D01*
X4705Y6387D01*
X4715Y6385D01*
X4725Y6387D01*
X4735Y6391D01*
X4743Y6397D01*
X4749Y6405D01*
X4753Y6415D01*
X4755Y6425D01*
X4753Y6435D01*
X4749Y6445D01*
X4743Y6453D01*
X4735Y6459D01*
X4725Y6463D01*
X4715Y6465D01*
D02*
G37*
G36*
X4480Y6025D02*
X4436D01*
X4437Y6017D01*
X4442Y6005D01*
X4450Y5995D01*
X4460Y5987D01*
X4472Y5982D01*
X4480Y5981D01*
Y6025D01*
D02*
G37*
G36*
X2306Y5190D02*
X2250D01*
Y5134D01*
X2306D01*
Y5190D01*
D02*
G37*
G36*
X2275Y5783D02*
X2261Y5782D01*
X2248Y5778D01*
X2235Y5771D01*
X2225Y5762D01*
X2216Y5751D01*
X2209Y5739D01*
X2205Y5726D01*
X2204Y5712D01*
X2205Y5698D01*
X2209Y5685D01*
X2216Y5672D01*
X2225Y5661D01*
X2235Y5653D01*
X2243Y5648D01*
Y5578D01*
X2235Y5574D01*
X2225Y5565D01*
X2216Y5555D01*
X2209Y5542D01*
X2205Y5529D01*
X2204Y5515D01*
X2205Y5501D01*
X2209Y5488D01*
X2216Y5475D01*
X2225Y5465D01*
X2235Y5456D01*
X2248Y5449D01*
X2261Y5445D01*
X2265Y5445D01*
X2423Y5287D01*
Y5252D01*
X2404D01*
Y5150D01*
X2506D01*
Y5169D01*
X2579D01*
Y5150D01*
X2681D01*
Y5252D01*
X2579D01*
Y5233D01*
X2506D01*
Y5252D01*
X2487D01*
Y5300D01*
X2486Y5308D01*
X2483Y5316D01*
X2477Y5322D01*
X2330Y5470D01*
X2334Y5475D01*
X2341Y5488D01*
X2345Y5501D01*
X2346Y5515D01*
X2345Y5529D01*
X2341Y5542D01*
X2334Y5555D01*
X2325Y5565D01*
X2315Y5574D01*
X2307Y5578D01*
Y5648D01*
X2315Y5653D01*
X2325Y5661D01*
X2334Y5672D01*
X2341Y5685D01*
X2345Y5698D01*
X2346Y5712D01*
X2345Y5726D01*
X2341Y5739D01*
X2334Y5751D01*
X2325Y5762D01*
X2315Y5771D01*
X2302Y5778D01*
X2289Y5782D01*
X2275Y5783D01*
D02*
G37*
G36*
X2240Y5190D02*
X2184D01*
Y5134D01*
X2240D01*
Y5190D01*
D02*
G37*
G36*
X5010Y5145D02*
X4974D01*
X4975Y5139D01*
X4979Y5129D01*
X4986Y5121D01*
X4994Y5114D01*
X5004Y5110D01*
X5010Y5109D01*
Y5145D01*
D02*
G37*
G36*
X5056D02*
X5020D01*
Y5109D01*
X5026Y5110D01*
X5036Y5114D01*
X5044Y5121D01*
X5051Y5129D01*
X5055Y5139D01*
X5056Y5145D01*
D02*
G37*
G36*
X4128Y5191D02*
Y5155D01*
X4164D01*
X4164Y5161D01*
X4159Y5171D01*
X4153Y5179D01*
X4144Y5186D01*
X4134Y5190D01*
X4128Y5191D01*
D02*
G37*
G36*
X4297D02*
X4291Y5190D01*
X4281Y5186D01*
X4272Y5179D01*
X4266Y5171D01*
X4261Y5161D01*
X4261Y5155D01*
X4297D01*
Y5191D01*
D02*
G37*
G36*
X4118D02*
X4113Y5190D01*
X4102Y5186D01*
X4094Y5179D01*
X4087Y5171D01*
X4083Y5161D01*
X4082Y5155D01*
X4118D01*
Y5191D01*
D02*
G37*
G36*
X3940D02*
X3934Y5190D01*
X3924Y5186D01*
X3916Y5179D01*
X3909Y5171D01*
X3905Y5161D01*
X3904Y5155D01*
X3940D01*
Y5191D01*
D02*
G37*
G36*
X3950D02*
Y5155D01*
X3986D01*
X3985Y5161D01*
X3981Y5171D01*
X3974Y5179D01*
X3966Y5186D01*
X3956Y5190D01*
X3950Y5191D01*
D02*
G37*
G36*
X4878Y5145D02*
X4842D01*
Y5109D01*
X4847Y5110D01*
X4858Y5114D01*
X4866Y5121D01*
X4873Y5129D01*
X4877Y5139D01*
X4878Y5145D01*
D02*
G37*
G36*
X4297D02*
X4261D01*
X4261Y5139D01*
X4266Y5129D01*
X4272Y5121D01*
X4281Y5114D01*
X4291Y5110D01*
X4297Y5109D01*
Y5145D01*
D02*
G37*
G36*
X4343D02*
X4307D01*
Y5109D01*
X4312Y5110D01*
X4323Y5114D01*
X4331Y5121D01*
X4338Y5129D01*
X4342Y5139D01*
X4343Y5145D01*
D02*
G37*
G36*
X4164D02*
X4128D01*
Y5109D01*
X4134Y5110D01*
X4144Y5114D01*
X4153Y5121D01*
X4159Y5129D01*
X4164Y5139D01*
X4164Y5145D01*
D02*
G37*
G36*
X3986D02*
X3950D01*
Y5109D01*
X3956Y5110D01*
X3966Y5114D01*
X3974Y5121D01*
X3981Y5129D01*
X3985Y5139D01*
X3986Y5145D01*
D02*
G37*
G36*
X4118D02*
X4082D01*
X4083Y5139D01*
X4087Y5129D01*
X4094Y5121D01*
X4102Y5114D01*
X4113Y5110D01*
X4118Y5109D01*
Y5145D01*
D02*
G37*
G36*
X4699D02*
X4663D01*
Y5109D01*
X4669Y5110D01*
X4679Y5114D01*
X4688Y5121D01*
X4694Y5129D01*
X4699Y5139D01*
X4699Y5145D01*
D02*
G37*
G36*
X4832D02*
X4796D01*
X4796Y5139D01*
X4801Y5129D01*
X4807Y5121D01*
X4816Y5114D01*
X4826Y5110D01*
X4832Y5109D01*
Y5145D01*
D02*
G37*
G36*
X4653D02*
X4617D01*
X4618Y5139D01*
X4622Y5129D01*
X4629Y5121D01*
X4637Y5114D01*
X4648Y5110D01*
X4653Y5109D01*
Y5145D01*
D02*
G37*
G36*
X4475D02*
X4439D01*
X4440Y5139D01*
X4444Y5129D01*
X4451Y5121D01*
X4459Y5114D01*
X4469Y5110D01*
X4475Y5109D01*
Y5145D01*
D02*
G37*
G36*
X4521D02*
X4485D01*
Y5109D01*
X4491Y5110D01*
X4501Y5114D01*
X4509Y5121D01*
X4516Y5129D01*
X4520Y5139D01*
X4521Y5145D01*
D02*
G37*
G36*
X4307Y5191D02*
Y5155D01*
X4343D01*
X4342Y5161D01*
X4338Y5171D01*
X4331Y5179D01*
X4323Y5186D01*
X4312Y5190D01*
X4307Y5191D01*
D02*
G37*
G36*
X2535Y5586D02*
Y5555D01*
X2566D01*
X2566Y5560D01*
X2562Y5569D01*
X2556Y5576D01*
X2549Y5582D01*
X2540Y5586D01*
X2535Y5586D01*
D02*
G37*
G36*
X4870Y6015D02*
X4848Y6013D01*
X4827Y6008D01*
X4806Y6000D01*
X4788Y5988D01*
X4771Y5974D01*
X4757Y5957D01*
X4745Y5939D01*
X4737Y5918D01*
X4732Y5897D01*
X4730Y5875D01*
X4732Y5853D01*
X4737Y5832D01*
X4745Y5811D01*
X4757Y5793D01*
X4771Y5776D01*
X4788Y5762D01*
X4806Y5750D01*
X4827Y5742D01*
X4848Y5737D01*
X4870Y5735D01*
X4892Y5737D01*
X4913Y5742D01*
X4934Y5750D01*
X4952Y5762D01*
X4969Y5776D01*
X4983Y5793D01*
X4995Y5811D01*
X5003Y5832D01*
X5008Y5853D01*
X5010Y5875D01*
X5008Y5897D01*
X5003Y5918D01*
X4995Y5939D01*
X4983Y5957D01*
X4969Y5974D01*
X4952Y5988D01*
X4934Y6000D01*
X4913Y6008D01*
X4892Y6013D01*
X4870Y6015D01*
D02*
G37*
G36*
X2525Y5586D02*
X2520Y5586D01*
X2511Y5582D01*
X2504Y5576D01*
X2498Y5569D01*
X2494Y5560D01*
X2494Y5555D01*
X2525D01*
Y5586D01*
D02*
G37*
G36*
Y5545D02*
X2494D01*
X2494Y5540D01*
X2498Y5531D01*
X2504Y5524D01*
X2511Y5518D01*
X2520Y5514D01*
X2525Y5514D01*
Y5545D01*
D02*
G37*
G36*
X2566D02*
X2535D01*
Y5514D01*
X2540Y5514D01*
X2549Y5518D01*
X2556Y5524D01*
X2562Y5531D01*
X2566Y5540D01*
X2566Y5545D01*
D02*
G37*
G36*
X2555Y5954D02*
X2547Y5953D01*
X2535Y5948D01*
X2525Y5940D01*
X2517Y5930D01*
X2512Y5918D01*
X2511Y5910D01*
X2555D01*
Y5954D01*
D02*
G37*
G36*
X2565D02*
Y5910D01*
X2609D01*
X2608Y5918D01*
X2603Y5930D01*
X2595Y5940D01*
X2585Y5948D01*
X2573Y5953D01*
X2565Y5954D01*
D02*
G37*
G36*
X2609Y5900D02*
X2565D01*
Y5856D01*
X2573Y5857D01*
X2585Y5862D01*
X2595Y5870D01*
X2603Y5880D01*
X2608Y5892D01*
X2609Y5900D01*
D02*
G37*
G36*
X4485Y5955D02*
X4472Y5953D01*
X4460Y5948D01*
X4450Y5940D01*
X4442Y5930D01*
X4437Y5918D01*
X4435Y5905D01*
X4437Y5892D01*
X4442Y5880D01*
X4450Y5870D01*
X4460Y5862D01*
X4472Y5857D01*
X4485Y5855D01*
X4498Y5857D01*
X4510Y5862D01*
X4520Y5870D01*
X4528Y5880D01*
X4533Y5892D01*
X4535Y5905D01*
X4533Y5918D01*
X4528Y5930D01*
X4520Y5940D01*
X4510Y5948D01*
X4498Y5953D01*
X4485Y5955D01*
D02*
G37*
G36*
X2555Y5900D02*
X2511D01*
X2512Y5892D01*
X2517Y5880D01*
X2525Y5870D01*
X2535Y5862D01*
X2547Y5857D01*
X2555Y5856D01*
Y5900D01*
D02*
G37*
G36*
X3610Y5381D02*
X3449D01*
Y5220D01*
X3610D01*
Y5381D01*
D02*
G37*
G36*
X4663Y5191D02*
Y5155D01*
X4699D01*
X4699Y5161D01*
X4694Y5171D01*
X4688Y5179D01*
X4679Y5186D01*
X4669Y5190D01*
X4663Y5191D01*
D02*
G37*
G36*
X4832D02*
X4826Y5190D01*
X4816Y5186D01*
X4807Y5179D01*
X4801Y5171D01*
X4796Y5161D01*
X4796Y5155D01*
X4832D01*
Y5191D01*
D02*
G37*
G36*
X4653D02*
X4648Y5190D01*
X4637Y5186D01*
X4629Y5179D01*
X4622Y5171D01*
X4618Y5161D01*
X4617Y5155D01*
X4653D01*
Y5191D01*
D02*
G37*
G36*
X4475D02*
X4469Y5190D01*
X4459Y5186D01*
X4451Y5179D01*
X4444Y5171D01*
X4440Y5161D01*
X4439Y5155D01*
X4475D01*
Y5191D01*
D02*
G37*
G36*
X4485D02*
Y5155D01*
X4521D01*
X4520Y5161D01*
X4516Y5171D01*
X4509Y5179D01*
X4501Y5186D01*
X4491Y5190D01*
X4485Y5191D01*
D02*
G37*
G36*
X2240Y5256D02*
X2184D01*
Y5200D01*
X2240D01*
Y5256D01*
D02*
G37*
G36*
X2306D02*
X2250D01*
Y5200D01*
X2306D01*
Y5256D01*
D02*
G37*
G36*
X5020Y5191D02*
Y5155D01*
X5056D01*
X5055Y5161D01*
X5051Y5171D01*
X5044Y5179D01*
X5036Y5186D01*
X5026Y5190D01*
X5020Y5191D01*
D02*
G37*
G36*
X4842D02*
Y5155D01*
X4878D01*
X4877Y5161D01*
X4873Y5171D01*
X4866Y5179D01*
X4858Y5186D01*
X4847Y5190D01*
X4842Y5191D01*
D02*
G37*
G36*
X5010D02*
X5004Y5190D01*
X4994Y5186D01*
X4986Y5179D01*
X4979Y5171D01*
X4975Y5161D01*
X4974Y5155D01*
X5010D01*
Y5191D01*
D02*
G37*
%LPD*%
D10*
X3290Y3460D02*
D03*
Y3283D02*
D03*
X3684D02*
D03*
Y3460D02*
D03*
D11*
X3905Y3535D02*
D03*
Y3474D02*
D03*
X4955Y6191D02*
D03*
Y6252D02*
D03*
D12*
X2665Y4375D02*
D03*
X2604D02*
D03*
X2665Y4185D02*
D03*
X2604D02*
D03*
X2665Y3995D02*
D03*
X2604D02*
D03*
X5438Y4345D02*
D03*
X5499D02*
D03*
D13*
X5335Y6193D02*
D03*
Y6258D02*
D03*
X5085D02*
D03*
Y6193D02*
D03*
X4365Y3285D02*
D03*
Y3220D02*
D03*
X5210Y6193D02*
D03*
Y6258D02*
D03*
D14*
X5339Y6450D02*
D03*
X5201D02*
D03*
X2404Y4000D02*
D03*
X2266D02*
D03*
X5470Y3450D02*
D03*
Y3633D02*
D03*
Y3816D02*
D03*
Y3999D02*
D03*
Y4182D02*
D03*
X2355Y3440D02*
D03*
X5065Y3225D02*
D03*
X2260Y4690D02*
D03*
D15*
X2275Y6685D02*
X2305Y6655D01*
X2560D01*
X2265Y6675D02*
X2275Y6685D01*
X2125Y6675D02*
X2265D01*
X2089Y6639D02*
X2125Y6675D01*
X2089Y6536D02*
Y6639D01*
Y6536D02*
X2275Y6350D01*
Y6302D02*
Y6350D01*
Y6106D02*
Y6302D01*
Y5515D02*
Y5712D01*
Y5480D02*
Y5515D01*
Y5480D02*
X2455Y5300D01*
Y5201D02*
Y5300D01*
Y5201D02*
X2630D01*
X2455Y4789D02*
X2630D01*
X2359D02*
X2455D01*
X2260Y4690D02*
X2359Y4789D01*
X2245Y5057D02*
X2928D01*
X2970Y5100D01*
Y5300D01*
X2939Y4789D02*
X3250Y5100D01*
X2630Y4789D02*
X2939D01*
X3250Y5100D02*
Y5300D01*
X4485Y6405D02*
Y6530D01*
X4645Y6690D01*
X4725D01*
X4760Y6725D01*
X5110D01*
X5121D01*
X5184Y6788D01*
X5423D01*
X5515Y6696D01*
Y6585D02*
Y6696D01*
Y6585D02*
X5540Y6560D01*
X5710D01*
Y6415D02*
Y6560D01*
Y6415D02*
X5835Y6290D01*
Y6195D02*
Y6290D01*
X5710Y6070D02*
X5835Y6195D01*
X4485Y6280D02*
X4570D01*
X4610Y6320D01*
Y6385D01*
X4650Y6425D01*
X4715D01*
X5310Y6725D02*
X5339Y6696D01*
Y6406D02*
Y6696D01*
X5445Y5020D02*
X5790Y4675D01*
X5575Y3455D02*
Y4045D01*
X5620Y4090D01*
X5740D01*
X5790Y4140D02*
Y4675D01*
X5740Y4090D02*
X5790Y4140D01*
X5710Y5895D02*
Y6070D01*
X5590Y5775D02*
X5710Y5895D01*
X5339Y6406D02*
X5445Y6300D01*
Y5020D02*
Y6300D01*
X5335Y5020D02*
X5445D01*
X5610Y4375D02*
Y4590D01*
X5580Y4345D02*
X5610Y4375D01*
X5580Y4192D02*
Y4345D01*
D16*
X4955Y6252D02*
Y6295D01*
X5090Y6430D01*
X5181D01*
X5201Y6450D01*
X5085Y6258D02*
Y6310D01*
X5115Y6340D01*
X5135D01*
X2404Y4000D02*
X2599D01*
X3458Y4375D02*
X3475Y4392D01*
X3643D01*
X3803Y4192D02*
X3880Y4115D01*
X3640Y3995D02*
X3736Y4091D01*
X3325Y3995D02*
X3640D01*
X2665D02*
X2780D01*
X2935Y3840D01*
X3170D01*
X3325Y3995D01*
X2665Y4375D02*
X3458D01*
X3170Y4295D02*
X3273Y4192D01*
X3803D01*
X2665Y4185D02*
X2815D01*
X2925Y4295D01*
X3170D01*
X3495Y4145D02*
X3650D01*
X3643Y4392D02*
X3870Y4165D01*
X3810Y4091D02*
Y4115D01*
X3736Y4091D02*
X3810D01*
X3870Y4165D02*
X4035D01*
X4085Y4115D01*
X4095D01*
X3880D02*
X3915D01*
X3495Y3945D02*
X4105D01*
X4115Y3955D01*
X4125D01*
X4135Y3945D01*
X3495Y3845D02*
X4130D01*
X4175Y3890D01*
X4185D01*
X2980Y3215D02*
X3048Y3283D01*
X3290D01*
X2455Y3440D02*
X2500Y3395D01*
Y3350D02*
Y3395D01*
Y3350D02*
X2575Y3275D01*
X4045Y3305D02*
X4135Y3215D01*
X4360D01*
X4365Y3220D01*
X3905Y3445D02*
X4045Y3305D01*
X2755Y3440D02*
X2845Y3530D01*
X3220D01*
X3430Y3740D01*
X3715D01*
X3290Y3270D02*
Y3283D01*
Y3270D02*
X3340Y3220D01*
X3655D01*
X3684Y3249D01*
Y3283D01*
X3688D01*
X3905Y3445D02*
Y3474D01*
X3684Y3283D02*
X3800Y3399D01*
Y3515D01*
X3820Y3535D01*
X3905D01*
X4025Y3655D01*
X4123Y4488D02*
Y4950D01*
X4302Y4692D02*
Y4950D01*
X4480Y4755D02*
Y4950D01*
X4265Y4540D02*
X4480Y4755D01*
X4265Y4535D02*
Y4540D01*
X4658Y4843D02*
Y4950D01*
X4340Y4525D02*
X4350D01*
X4340D02*
X4658Y4843D01*
X4837Y4912D02*
Y4950D01*
X4445Y4520D02*
X4837Y4912D01*
X4580Y4515D02*
X5015Y4950D01*
X4950Y4150D02*
X5435Y4635D01*
X4950Y4075D02*
Y4150D01*
X4845Y4145D02*
X5435Y4735D01*
X4845Y4135D02*
Y4145D01*
X4865Y3225D02*
Y3970D01*
X4735Y4100D02*
X4865Y3970D01*
X4735Y4100D02*
Y4340D01*
X4665Y4410D02*
X4735Y4340D01*
X4610Y4410D02*
X4665D01*
X4765Y3225D02*
Y3960D01*
X4665Y4060D02*
X4765Y3960D01*
X4665Y4060D02*
Y4305D01*
X5470Y4182D02*
Y4225D01*
X5438Y4257D02*
X5470Y4225D01*
X5438Y4257D02*
Y4345D01*
X3945Y4615D02*
Y4950D01*
X3830Y4500D02*
X3945Y4615D01*
X3790Y4500D02*
X3830D01*
X4365Y3220D02*
X4560D01*
X2520Y4375D02*
X2604D01*
X2510Y4190D02*
X2599D01*
D17*
X5214Y6262D02*
X5339D01*
Y6406D01*
X5580Y4345D02*
X5580Y4345D01*
X5499Y4345D02*
X5580D01*
D18*
X3790Y4400D02*
D03*
X5435Y4635D02*
D03*
X3495Y3845D02*
D03*
X3945Y4950D02*
D03*
X4123D02*
D03*
X4302D02*
D03*
X4480D02*
D03*
X4658D02*
D03*
X4837D02*
D03*
X5015D02*
D03*
D19*
X3790Y4500D02*
D03*
X5435Y4735D02*
D03*
X3495Y4045D02*
D03*
Y3945D02*
D03*
Y4145D02*
D03*
Y4245D02*
D03*
Y4345D02*
D03*
Y4445D02*
D03*
X5570Y3450D02*
D03*
X5670D02*
D03*
X5570Y3633D02*
D03*
X5670D02*
D03*
X5570Y3816D02*
D03*
X5670D02*
D03*
X5570Y3999D02*
D03*
X5670D02*
D03*
X5570Y4182D02*
D03*
X5670D02*
D03*
X2855Y3440D02*
D03*
X2755D02*
D03*
X2655D02*
D03*
X2555D02*
D03*
X2455D02*
D03*
X3945Y5050D02*
D03*
Y5150D02*
D03*
X4123Y5050D02*
D03*
Y5150D02*
D03*
X4302Y5050D02*
D03*
Y5150D02*
D03*
X4480Y5050D02*
D03*
Y5150D02*
D03*
X4658Y5050D02*
D03*
Y5150D02*
D03*
X4837Y5050D02*
D03*
Y5150D02*
D03*
X5015Y5050D02*
D03*
Y5150D02*
D03*
X4965Y3225D02*
D03*
X4865D02*
D03*
X4765D02*
D03*
X4665D02*
D03*
X4565D02*
D03*
X2160Y4690D02*
D03*
D20*
X3050Y4070D02*
D03*
X4870Y5875D02*
D03*
D21*
X2275Y6106D02*
D03*
Y6302D02*
D03*
Y5515D02*
D03*
Y5712D02*
D03*
D22*
X4485Y6655D02*
D03*
Y6530D02*
D03*
Y6405D02*
D03*
Y6280D02*
D03*
Y6155D02*
D03*
Y6030D02*
D03*
Y5905D02*
D03*
X2560D02*
D03*
Y6155D02*
D03*
Y6405D02*
D03*
D23*
Y6655D02*
D03*
D24*
X2275Y6585D02*
D03*
X4725Y6590D02*
D03*
D25*
X2275Y6685D02*
D03*
X4725Y6690D02*
D03*
D26*
X3530Y5300D02*
D03*
Y5100D02*
D03*
D27*
X3250D02*
D03*
X2970D02*
D03*
X3250Y5300D02*
D03*
X2970D02*
D03*
D28*
X5110Y6725D02*
D03*
D29*
X5210D02*
D03*
X5310D02*
D03*
D30*
X5710Y6698D02*
D03*
X2245Y5057D02*
D03*
X5710Y6208D02*
D03*
D31*
Y6560D02*
D03*
X2245Y5195D02*
D03*
X5710Y6070D02*
D03*
D32*
X4715Y6425D02*
D03*
Y6125D02*
D03*
D33*
X2455Y4789D02*
D03*
X2630D02*
D03*
D34*
X2455Y5201D02*
D03*
X2630D02*
D03*
D35*
X2530Y5550D02*
D03*
X5135Y6340D02*
D03*
X5590Y5775D02*
D03*
X5335Y5020D02*
D03*
X3650Y4145D02*
D03*
X3810Y4115D02*
D03*
X4095D02*
D03*
X3915D02*
D03*
X4135Y3945D02*
D03*
X4185Y3890D02*
D03*
X2980Y3215D02*
D03*
X2575Y3275D02*
D03*
X4045Y3305D02*
D03*
X3715Y3740D02*
D03*
X4025Y3655D02*
D03*
X4123Y4488D02*
D03*
X4302Y4692D02*
D03*
X4265Y4535D02*
D03*
X4350Y4525D02*
D03*
X4445Y4520D02*
D03*
X4580Y4515D02*
D03*
X4950Y4075D02*
D03*
X4845Y4135D02*
D03*
X4610Y4410D02*
D03*
X4665Y4305D02*
D03*
X5610Y4590D02*
D03*
X2520Y4375D02*
D03*
X2510Y4190D02*
D03*
M02*
