M48
;Layer_Color=9474304
;FILE_FORMAT=2:3
INCH,LZ
;TYPE=PLATED
T1F00S00C0.028
T2F00S00C0.031
T3F00S00C0.033
T4F00S00C0.035
T5F00S00C0.039
T6F00S00C0.043
T7F00S00C0.047
T8F00S00C0.051
T9F00S00C0.055
T10F00S00C0.134
%
T01
X02575Y03275
X0298Y03215
X0251Y0419
X0252Y04375
X0365Y04145
X0381Y04115
X03915
X04095
X04135Y03945
X04185Y0389
X04025Y03655
X04045Y03305
X03715Y0374
X04123Y04488
X04265Y04535
X0435Y04525
X04445Y0452
X0458Y04515
X0461Y0441
X04665Y04305
X04845Y04135
X0495Y04075
X0561Y0459
X05335Y0502
X0559Y05775
X04302Y04692
X0253Y0555
X05135Y0634
T02
X02275Y06585
Y06685
X04725Y0669
Y0659
T03
X04715Y06125
Y06425
T04
X02355Y0344
X02455
X02555
X02655
X02755
X02855
X03495Y03845
Y03945
Y04045
Y04145
Y04245
Y04345
Y04445
X0379Y044
Y045
X04565Y03225
X04665
X04765
X04865
X04965
X05065
X0547Y0345
X0557
X0567
Y03633
X0557
X0547
Y03816
X0557
X0567
Y03999
X0557
X0547
Y04182
X0557
X0567
X05435Y04635
Y04735
X05015Y0495
Y0505
Y0515
X04837
Y0505
Y0495
X04658
Y0505
Y0515
X0448
Y0505
Y0495
X04302
Y0505
Y0515
X04123
Y0505
Y0495
X03945
Y0505
Y0515
X0226Y0469
X0216
T05
X0511Y06725
X0521
X0531
T06
X04485Y05905
Y0603
Y06155
X0256
Y05905
Y06405
Y06655
X04485
Y0653
Y06405
Y0628
T07
X02455Y04789
X0263
Y05201
X02455
T08
X0571Y0607
Y06208
X02275Y06106
Y05712
Y05515
X02245Y05195
Y05057
X02275Y06302
X0571Y0656
Y06698
T09
X0325Y051
Y053
X0353
Y051
X0297
Y053
T10
X0305Y0407
X0487Y05875
M30
